<svg xmlns="http://www.w3.org/2000/svg" xmlns:xlink="http://www.w3.org/1999/xlink" viewBox="0 0 365.24 355.97"><defs><style>.cls-1{isolation:isolate;}.cls-2{fill:#8686f2;mix-blend-mode:lighten;}.cls-10,.cls-11,.cls-12,.cls-13,.cls-14,.cls-15,.cls-16,.cls-23,.cls-24,.cls-3,.cls-31,.cls-4,.cls-46,.cls-5{opacity:0.5;}.cls-3{fill:url(#Áåçûìÿííûé_ãðàäèåíò_209);}.cls-4{fill:url(#Áåçûìÿííûé_ãðàäèåíò_254);}.cls-5{fill:url(#Áåçûìÿííûé_ãðàäèåíò_209-2);}.cls-6{fill:url(#Áåçûìÿííûé_ãðàäèåíò_18);}.cls-7{fill:#bcbeff;}.cls-8{fill:#fff;}.cls-9{fill:#0f054c;}.cls-10{fill:url(#Áåçûìÿííûé_ãðàäèåíò_254-2);}.cls-11{fill:url(#Áåçûìÿííûé_ãðàäèåíò_254-3);}.cls-12{fill:url(#Áåçûìÿííûé_ãðàäèåíò_254-4);}.cls-13{fill:url(#Áåçûìÿííûé_ãðàäèåíò_254-5);}.cls-14,.cls-17,.cls-25,.cls-33,.cls-34,.cls-35,.cls-36{fill:#42e8e0;}.cls-15{fill:url(#Áåçûìÿííûé_ãðàäèåíò_254-6);}.cls-16{fill:url(#Áåçûìÿííûé_ãðàäèåíò_254-7);}.cls-17{opacity:0.8;}.cls-18,.cls-41{opacity:0.11;}.cls-19{fill:url(#Áåçûìÿííûé_ãðàäèåíò_209-3);}.cls-20{fill:url(#Áåçûìÿííûé_ãðàäèåíò_209-4);}.cls-21{fill:url(#Áåçûìÿííûé_ãðàäèåíò_209-5);}.cls-22{fill:url(#Áåçûìÿííûé_ãðàäèåíò_209-6);}.cls-23{fill:url(#Áåçûìÿííûé_ãðàäèåíò_209-7);}.cls-26{fill:url(#Áåçûìÿííûé_ãðàäèåíò_209-9);}.cls-27{fill:url(#Áåçûìÿííûé_ãðàäèåíò_209-10);}.cls-28{fill:url(#Áåçûìÿííûé_ãðàäèåíò_209-11);}.cls-29{fill:url(#Áåçûìÿííûé_ãðàäèåíò_209-12);}.cls-30{fill:url(#Áåçûìÿííûé_ãðàäèåíò_209-13);}.cls-31{fill:url(#Áåçûìÿííûé_ãðàäèåíò_209-14);}.cls-32{fill:url(#Áåçûìÿííûé_ãðàäèåíò_209-16);}.cls-33{opacity:0.5;}.cls-34{opacity:0.75;}.cls-35{opacity:0.88;}.cls-36{opacity:0.97;}.cls-37{fill:url(#Áåçûìÿííûé_ãðàäèåíò_209-17);}.cls-38{fill:url(#Áåçûìÿííûé_ãðàäèåíò_209-18);}.cls-39{fill:url(#Áåçûìÿííûé_ãðàäèåíò_209-19);}.cls-40{fill:url(#Áåçûìÿííûé_ãðàäèåíò_209-20);}.cls-41{fill:url(#Áåçûìÿííûé_ãðàäèåíò_209-21);}.cls-42{fill:url(#Áåçûìÿííûé_ãðàäèåíò_209-22);}.cls-43{fill:url(#Áåçûìÿííûé_ãðàäèåíò_209-23);}.cls-44{fill:url(#Áåçûìÿííûé_ãðàäèåíò_209-24);}.cls-45{fill:url(#Áåçûìÿííûé_ãðàäèåíò_209-25);}.cls-46{fill:url(#Áåçûìÿííûé_ãðàäèåíò_209-26);}.cls-47{fill:url(#Áåçûìÿííûé_ãðàäèåíò_209-28);}.cls-48{fill:#180d5b;opacity:0.2;}.cls-49{fill:#160a5b;}.cls-50{fill:#24126a;}.cls-51{fill:#453c9e;}.cls-52{fill:url(#Áåçûìÿííûé_ãðàäèåíò_209-29);}.cls-53{fill:url(#Áåçûìÿííûé_ãðàäèåíò_209-30);}.cls-54{fill:#f0f6ff;}.cls-55{fill:#fcd1c5;}.cls-56{fill:#4846a5;}.cls-57{fill:#aa8383;}.cls-58{fill:#c4ccd6;}.cls-59{fill:#e2b1a6;}.cls-60{fill:url(#Áåçûìÿííûé_ãðàäèåíò_209-31);}.cls-61{fill:#936d6d;}</style><linearGradient id="Áåçûìÿííûé_ãðàäèåíò_209" x1="97.75" y1="218.28" x2="144.24" y2="218.28" gradientUnits="userSpaceOnUse"><stop offset="0" stop-color="#5761d7"/><stop offset="0.07" stop-color="#5472d8"/><stop offset="0.28" stop-color="#4e9cdb"/><stop offset="0.48" stop-color="#49bddd"/><stop offset="0.67" stop-color="#45d5df"/><stop offset="0.85" stop-color="#43e3e0"/><stop offset="1" stop-color="#42e8e0"/></linearGradient><linearGradient id="Áåçûìÿííûé_ãðàäèåíò_254" x1="221.53" y1="218.21" x2="267.75" y2="218.21" gradientUnits="userSpaceOnUse"><stop offset="0" stop-color="#42e8e0"/><stop offset="0.15" stop-color="#43e3e0"/><stop offset="0.33" stop-color="#45d5df"/><stop offset="0.52" stop-color="#49bddd"/><stop offset="0.72" stop-color="#4e9cdb"/><stop offset="0.93" stop-color="#5472d8"/><stop offset="1" stop-color="#5761d7"/></linearGradient><linearGradient id="Áåçûìÿííûé_ãðàäèåíò_209-2" x1="95.4" y1="294.48" x2="269.55" y2="294.48" xlink:href="#Áåçûìÿííûé_ãðàäèåíò_209"/><linearGradient id="Áåçûìÿííûé_ãðàäèåíò_18" x1="68.63" y1="178.76" x2="264.11" y2="178.76" gradientUnits="userSpaceOnUse"><stop offset="0" stop-color="#5761d7"/><stop offset="0.16" stop-color="#5e67da"/><stop offset="0.41" stop-color="#727ae2"/><stop offset="0.69" stop-color="#9297ee"/><stop offset="1" stop-color="#bcbeff"/></linearGradient><linearGradient id="Áåçûìÿííûé_ãðàäèåíò_254-2" x1="123.95" y1="152.34" x2="241.28" y2="152.34" xlink:href="#Áåçûìÿííûé_ãðàäèåíò_254"/><linearGradient id="Áåçûìÿííûé_ãðàäèåíò_254-3" x1="182.62" y1="131.14" x2="241.28" y2="131.14" xlink:href="#Áåçûìÿííûé_ãðàäèåíò_254"/><linearGradient id="Áåçûìÿííûé_ãðàäèåíò_254-4" x1="123.95" y1="131.14" x2="182.62" y2="131.14" xlink:href="#Áåçûìÿííûé_ãðàäèåíò_254"/><linearGradient id="Áåçûìÿííûé_ãðàäèåíò_254-5" x1="123.95" y1="143.8" x2="241.28" y2="143.8" xlink:href="#Áåçûìÿííûé_ãðàäèåíò_254"/><linearGradient id="Áåçûìÿííûé_ãðàäèåíò_254-6" x1="182.62" y1="165.01" x2="241.28" y2="165.01" xlink:href="#Áåçûìÿííûé_ãðàäèåíò_254"/><linearGradient id="Áåçûìÿííûé_ãðàäèåíò_254-7" x1="123.95" y1="165.01" x2="182.62" y2="165.01" xlink:href="#Áåçûìÿííûé_ãðàäèåíò_254"/><linearGradient id="Áåçûìÿííûé_ãðàäèåíò_209-3" x1="0" y1="250.3" x2="129.55" y2="250.3" xlink:href="#Áåçûìÿííûé_ãðàäèåíò_209"/><linearGradient id="Áåçûìÿííûé_ãðàäèåíò_209-4" x1="0" y1="240.33" x2="129.55" y2="240.33" xlink:href="#Áåçûìÿííûé_ãðàäèåíò_209"/><linearGradient id="Áåçûìÿííûé_ãðàäèåíò_209-5" x1="0" y1="230.36" x2="129.55" y2="230.36" xlink:href="#Áåçûìÿííûé_ãðàäèåíò_209"/><linearGradient id="Áåçûìÿííûé_ãðàäèåíò_209-6" x1="0" y1="220.4" x2="129.55" y2="220.4" xlink:href="#Áåçûìÿííûé_ãðàäèåíò_209"/><linearGradient id="Áåçûìÿííûé_ãðàäèåíò_209-7" x1="0" y1="230.42" x2="129.55" y2="230.42" xlink:href="#Áåçûìÿííûé_ãðàäèåíò_209"/><linearGradient id="Áåçûìÿííûé_ãðàäèåíò_209-9" x1="0" y1="238.36" x2="129.55" y2="238.36" xlink:href="#Áåçûìÿííûé_ãðàäèåíò_209"/><linearGradient id="Áåçûìÿííûé_ãðàäèåíò_209-10" x1="235.68" y1="250.3" x2="365.24" y2="250.3" xlink:href="#Áåçûìÿííûé_ãðàäèåíò_209"/><linearGradient id="Áåçûìÿííûé_ãðàäèåíò_209-11" x1="235.68" y1="240.33" x2="365.24" y2="240.33" xlink:href="#Áåçûìÿííûé_ãðàäèåíò_209"/><linearGradient id="Áåçûìÿííûé_ãðàäèåíò_209-12" x1="235.68" y1="230.36" x2="365.24" y2="230.36" xlink:href="#Áåçûìÿííûé_ãðàäèåíò_209"/><linearGradient id="Áåçûìÿííûé_ãðàäèåíò_209-13" x1="235.68" y1="220.4" x2="365.24" y2="220.4" xlink:href="#Áåçûìÿííûé_ãðàäèåíò_209"/><linearGradient id="Áåçûìÿííûé_ãðàäèåíò_209-14" x1="235.68" y1="230.42" x2="365.24" y2="230.42" xlink:href="#Áåçûìÿííûé_ãðàäèåíò_209"/><linearGradient id="Áåçûìÿííûé_ãðàäèåíò_209-16" x1="235.68" y1="238.36" x2="365.24" y2="238.36" xlink:href="#Áåçûìÿííûé_ãðàäèåíò_209"/><linearGradient id="Áåçûìÿííûé_ãðàäèåíò_209-17" x1="41.46" y1="321.45" x2="163.27" y2="321.45" gradientTransform="matrix(-1, 0, 0, 1, 284.73, 0)" xlink:href="#Áåçûìÿííûé_ãðàäèåíò_209"/><linearGradient id="Áåçûìÿííûé_ãðàäèåíò_209-18" x1="41.46" y1="312.08" x2="163.27" y2="312.08" gradientTransform="matrix(-1, 0, 0, 1, 284.73, 0)" xlink:href="#Áåçûìÿííûé_ãðàäèåíò_209"/><linearGradient id="Áåçûìÿííûé_ãðàäèåíò_209-19" x1="41.46" y1="302.71" x2="163.27" y2="302.71" gradientTransform="matrix(-1, 0, 0, 1, 284.73, 0)" xlink:href="#Áåçûìÿííûé_ãðàäèåíò_209"/><linearGradient id="Áåçûìÿííûé_ãðàäèåíò_209-20" x1="41.46" y1="293.34" x2="163.27" y2="293.34" gradientTransform="matrix(-1, 0, 0, 1, 284.73, 0)" xlink:href="#Áåçûìÿííûé_ãðàäèåíò_209"/><linearGradient id="Áåçûìÿííûé_ãðàäèåíò_209-21" x1="41.46" y1="307.39" x2="163.27" y2="307.39" gradientTransform="matrix(-1, 0, 0, 1, 284.73, 0)" xlink:href="#Áåçûìÿííûé_ãðàäèåíò_209"/><linearGradient id="Áåçûìÿííûé_ãðàäèåíò_209-22" x1="28.52" y1="277.43" x2="176.21" y2="277.43" gradientTransform="matrix(-1, 0, 0, 1, 284.73, 0)" xlink:href="#Áåçûìÿííûé_ãðàäèåíò_209"/><linearGradient id="Áåçûìÿííûé_ãðàäèåíò_209-23" x1="28.52" y1="266.07" x2="176.21" y2="266.07" gradientTransform="matrix(-1, 0, 0, 1, 284.73, 0)" xlink:href="#Áåçûìÿííûé_ãðàäèåíò_209"/><linearGradient id="Áåçûìÿííûé_ãðàäèåíò_209-24" x1="28.52" y1="254.71" x2="176.21" y2="254.71" gradientTransform="matrix(-1, 0, 0, 1, 284.73, 0)" xlink:href="#Áåçûìÿííûé_ãðàäèåíò_209"/><linearGradient id="Áåçûìÿííûé_ãðàäèåíò_209-25" x1="28.52" y1="243.35" x2="176.21" y2="243.35" gradientTransform="matrix(-1, 0, 0, 1, 284.73, 0)" xlink:href="#Áåçûìÿííûé_ãðàäèåíò_209"/><linearGradient id="Áåçûìÿííûé_ãðàäèåíò_209-26" x1="28.52" y1="260.39" x2="176.21" y2="260.39" gradientTransform="matrix(-1, 0, 0, 1, 284.73, 0)" xlink:href="#Áåçûìÿííûé_ãðàäèåíò_209"/><linearGradient id="Áåçûìÿííûé_ãðàäèåíò_209-28" x1="28.52" y1="263.83" x2="176.21" y2="263.83" gradientTransform="matrix(-1, 0, 0, 1, 284.73, 0)" xlink:href="#Áåçûìÿííûé_ãðàäèåíò_209"/><linearGradient id="Áåçûìÿííûé_ãðàäèåíò_209-29" x1="40.64" y1="205.45" x2="56.23" y2="205.45" gradientTransform="matrix(-1, 0.06, 0.06, 1, 243.89, -47.03)" xlink:href="#Áåçûìÿííûé_ãðàäèåíò_209"/><linearGradient id="Áåçûìÿííûé_ãðàäèåíò_209-30" x1="62.67" y1="210.5" x2="95.28" y2="210.5" gradientTransform="matrix(-1, 0.06, 0.06, 1, 243.89, -47.03)" xlink:href="#Áåçûìÿííûé_ãðàäèåíò_209"/><linearGradient id="Áåçûìÿííûé_ãðàäèåíò_209-31" x1="47.69" y1="169.16" x2="100.72" y2="169.16" gradientTransform="matrix(-1, 0.06, 0.06, 1, 243.89, -47.03)" xlink:href="#Áåçûìÿííûé_ãðàäèåíò_209"/></defs><g class="cls-1"><g id="Layer_2" data-name="Layer 2"><g id="Ñëîé_1" data-name="Ñëîé 1"><path class="cls-2" d="M182.61,227.17a6.51,6.51,0,0,1-3.19-.75L107.6,185a2.52,2.52,0,0,1-1.44-2.16,3.31,3.31,0,0,1,1.92-2.67l70.86-40.91a7.93,7.93,0,0,1,7.25-.27L258,180.4a2.54,2.54,0,0,1,1.44,2.17,3.28,3.28,0,0,1-1.92,2.66l-70.86,40.91A8.28,8.28,0,0,1,182.61,227.17ZM180,225.46a7,7,0,0,0,6.15-.28L257,184.27a2.29,2.29,0,0,0,1.36-1.71,1.49,1.49,0,0,0-.88-1.19L185.63,139.9a7,7,0,0,0-6.14.28l-70.86,40.91a2.3,2.3,0,0,0-1.36,1.7,1.51,1.51,0,0,0,.88,1.2Z"/><path class="cls-3" d="M98.31,231.94a.56.56,0,0,1-.28-1l45.37-26.2a.56.56,0,0,1,.56,1L98.59,231.86A.6.6,0,0,1,98.31,231.94Z"/><path class="cls-4" d="M267.2,231.79a.57.57,0,0,1-.28-.08l-45.11-26a.56.56,0,1,1,.55-1l45.12,26.05a.56.56,0,0,1,.2.76A.55.55,0,0,1,267.2,231.79Z"/><path class="cls-5" d="M182.62,319.28a10.5,10.5,0,0,1-5.29-1.42c-18.49-10.72-80.08-46.32-81.55-47a.53.53,0,0,1-.36-.68.58.58,0,0,1,.71-.37c1,.28,81,46.6,81.76,47.07a9.48,9.48,0,0,0,9.47,0l81.35-47.15a.56.56,0,1,1,.56,1l-81.35,47.15A10.56,10.56,0,0,1,182.62,319.28Z"/><polygon class="cls-6" points="258.89 152.33 258.89 161.15 182.62 205.18 106.34 161.15 106.34 152.33 258.89 152.33"/><polygon class="cls-7" points="182.62 196.37 106.34 152.33 182.62 108.3 258.89 152.33 182.62 196.37"/><polygon class="cls-8" points="182.62 195.34 107.23 151.82 106.34 152.33 182.62 196.37 258.89 152.33 258 151.82 182.62 195.34"/><polygon class="cls-9" points="182.62 186.21 123.95 152.34 182.62 118.47 241.28 152.34 182.62 186.21"/><polygon class="cls-10" points="182.62 186.21 123.95 152.34 182.62 118.47 241.28 152.34 182.62 186.21"/><polygon class="cls-11" points="182.62 109.93 241.28 143.8 241.28 152.34 182.62 118.47 182.62 109.93"/><polygon class="cls-12" points="182.62 118.47 123.95 152.34 123.95 143.8 182.62 109.93 182.62 118.47"/><polygon class="cls-13" points="182.62 177.67 123.95 143.8 182.62 109.93 241.28 143.8 182.62 177.67"/><polygon class="cls-14" points="182.62 157.34 159.18 143.8 182.62 130.27 206.06 143.8 182.62 157.34"/><polygon class="cls-14" points="182.62 131.51 204.98 144.43 206.06 143.8 182.62 130.27 159.18 143.8 160.25 144.43 182.62 131.51"/><polygon class="cls-15" points="182.62 177.67 182.62 186.21 241.28 152.34 241.28 143.8 182.62 177.67"/><polygon class="cls-16" points="123.95 143.8 123.95 152.34 182.62 186.21 182.62 177.67 123.95 143.8"/><polygon class="cls-17" points="182.62 176.74 124.76 143.34 123.95 143.8 182.62 177.67 241.28 143.8 240.48 143.34 182.62 176.74"/><g class="cls-18"><path class="cls-19" d="M69.78,214.91a9.93,9.93,0,0,0-9.92,0L.7,249a1.4,1.4,0,0,0,0,2.42l59.65,34.44a8.73,8.73,0,0,0,8.76,0l59.74-34.41a1.39,1.39,0,0,0,0-2.42Z"/></g><g class="cls-18"><path class="cls-20" d="M69.78,204.94a9.93,9.93,0,0,0-9.92,0L.7,239a1.4,1.4,0,0,0,0,2.42l59.65,34.44a8.78,8.78,0,0,0,8.76,0l59.74-34.41a1.39,1.39,0,0,0,0-2.42Z"/></g><g class="cls-18"><path class="cls-21" d="M69.78,195a9.91,9.91,0,0,0-9.92,0L.7,229.05a1.4,1.4,0,0,0,0,2.42l59.65,34.44a8.78,8.78,0,0,0,8.76,0l59.74-34.41a1.39,1.39,0,0,0,0-2.42Z"/></g><g class="cls-18"><path class="cls-22" d="M69.78,185a9.93,9.93,0,0,0-9.92,0L.7,219.08a1.4,1.4,0,0,0,0,2.42l59.65,34.44a8.73,8.73,0,0,0,8.76,0l59.74-34.4a1.39,1.39,0,0,0,0-2.42Z"/></g><path class="cls-23" d="M128.85,219.12,69.78,185a9.93,9.93,0,0,0-9.92,0L.7,219.08a1.38,1.38,0,0,0-.7,1.21v20a1.38,1.38,0,0,0,.7,1.21L60.35,276a8.73,8.73,0,0,0,8.76,0l59.74-34.41a1.38,1.38,0,0,0,.7-1.21v-20h0A1.37,1.37,0,0,0,128.85,219.12Z"/><g class="cls-18"><path class="cls-22" d="M69.78,185a9.93,9.93,0,0,0-9.92,0L.7,219.08a1.4,1.4,0,0,0,0,2.42l59.65,34.44a8.73,8.73,0,0,0,8.76,0l59.74-34.4a1.39,1.39,0,0,0,0-2.42Z"/></g><g class="cls-24"><path class="cls-25" d="M66.9,204.55a4.2,4.2,0,0,0-4.21,0l-26.5,15.27a.62.62,0,0,0,0,1.08L62.8,236.26a3.9,3.9,0,0,0,3.91,0l26.66-15.35a.63.63,0,0,0,0-1.08Z"/></g><path class="cls-25" d="M36.19,220.77l26.5-15.27a4.22,4.22,0,0,1,4.21,0l26.47,15.28s0,.05.06.06a.6.6,0,0,0-.06-1L66.9,204.55a4.2,4.2,0,0,0-4.21,0l-26.5,15.27a.61.61,0,0,0-.06,1S36.16,220.78,36.19,220.77Z"/><path class="cls-26" d="M128.85,220.16,69.11,254.57a8.78,8.78,0,0,1-8.76,0L.7,220.13a1.52,1.52,0,0,1-.52-.52A1.39,1.39,0,0,0,.7,221.5l59.65,34.44a8.73,8.73,0,0,0,8.76,0l59.74-34.4a1.39,1.39,0,0,0,.52-1.9A1.37,1.37,0,0,1,128.85,220.16Z"/><g class="cls-18"><path class="cls-27" d="M305.47,214.91a10,10,0,0,0-9.93,0L236.38,249a1.4,1.4,0,0,0,0,2.42L296,285.84a8.73,8.73,0,0,0,8.76,0l59.75-34.41a1.4,1.4,0,0,0,0-2.42Z"/></g><g class="cls-18"><path class="cls-28" d="M305.47,204.94a10,10,0,0,0-9.93,0L236.38,239a1.4,1.4,0,0,0,0,2.42L296,275.88a8.78,8.78,0,0,0,8.76,0l59.75-34.41a1.4,1.4,0,0,0,0-2.42Z"/></g><g class="cls-18"><path class="cls-29" d="M305.47,195a9.92,9.92,0,0,0-9.93,0l-59.16,34.08a1.4,1.4,0,0,0,0,2.42L296,265.91a8.78,8.78,0,0,0,8.76,0l59.75-34.41a1.4,1.4,0,0,0,0-2.42Z"/></g><g class="cls-18"><path class="cls-30" d="M305.47,185a10,10,0,0,0-9.93,0l-59.16,34.07a1.4,1.4,0,0,0,0,2.42L296,255.94a8.73,8.73,0,0,0,8.76,0l59.75-34.4a1.4,1.4,0,0,0,0-2.42Z"/></g><path class="cls-31" d="M364.54,219.12,305.47,185a10,10,0,0,0-9.93,0l-59.16,34.07a1.4,1.4,0,0,0-.7,1.21v20a1.4,1.4,0,0,0,.7,1.21L296,276a8.73,8.73,0,0,0,8.76,0l59.75-34.41a1.4,1.4,0,0,0,.7-1.21v-20h0A1.39,1.39,0,0,0,364.54,219.12Z"/><g class="cls-18"><path class="cls-30" d="M305.47,185a10,10,0,0,0-9.93,0l-59.16,34.07a1.4,1.4,0,0,0,0,2.42L296,255.94a8.73,8.73,0,0,0,8.76,0l59.75-34.4a1.4,1.4,0,0,0,0-2.42Z"/></g><g class="cls-24"><path class="cls-25" d="M302.58,204.55a4.18,4.18,0,0,0-4.2,0l-26.51,15.27a.62.62,0,0,0,0,1.08l26.61,15.37a3.9,3.9,0,0,0,3.91,0l26.66-15.35a.62.62,0,0,0,0-1.08Z"/></g><path class="cls-25" d="M271.87,220.77l26.51-15.27a4.2,4.2,0,0,1,4.2,0l26.47,15.28s0,.05.06.06a.6.6,0,0,0-.06-1l-26.47-15.28a4.18,4.18,0,0,0-4.2,0l-26.51,15.27a.61.61,0,0,0-.06,1S271.84,220.78,271.87,220.77Z"/><path class="cls-32" d="M364.54,220.16l-59.75,34.41a8.78,8.78,0,0,1-8.76,0l-59.65-34.44a1.52,1.52,0,0,1-.52-.52,1.39,1.39,0,0,0,.52,1.89L296,255.94a8.73,8.73,0,0,0,8.76,0l59.75-34.4a1.41,1.41,0,0,0,.52-1.9A1.44,1.44,0,0,1,364.54,220.16Z"/><path class="cls-33" d="M349.19,136.8V101.37c-.82-12.08-5.6-23.59-13.62-34.11v35.43c8,10.53,12.8,22,13.62,34.11ZM331.47,97.72V62.28A101.33,101.33,0,0,0,322.09,53V88.47a101.41,101.41,0,0,1,9.38,9.25Zm-15.19-14V48.32a137.35,137.35,0,0,0-11.95-8.14V75.61a137.35,137.35,0,0,1,11.95,8.14Zm-20-2.23V25.15c32.64,17.31,53,42.08,53,69.48V151c0-27.4-20.38-52.17-53-69.49Z"/><path class="cls-33" d="M236.6,54.46V44.28q-3.73-.72-7.55-1.33V53.13q3.81.61,7.55,1.33ZM223,42V33q-3.87-.53-7.82-1v9q3.95.44,7.82,1Zm26.65,5.1V34.86q-3.58-.88-7.25-1.68V45.46q3.66.8,7.25,1.68ZM209,40.47V22.34q-4-.35-8-.58V39.9c2.7.15,5.38.35,8,.57Zm-29.18-1V21.32q-4.09.06-8.15.24V39.69q4.05-.18,8.15-.24ZM165.3,40V17.23c-2.67.17-5.32.39-8,.63V40.67q4-.37,8-.63Zm29.22-.44V13.51c-2.44-.08-4.9-.14-7.37-.16h-.87V39.43h.87c2.47,0,4.93.08,7.37.17Zm-43.35,1.72V8.69q-3.9.45-7.74,1V42.34q3.84-.56,7.74-1ZM126.81,5.89A278,278,0,0,1,187.15,0c28.34.29,54.88,4.65,78,12.1V68.48C242,61,215.49,56.67,187.15,56.39a277.36,277.36,0,0,0-60.34,5.88V5.89Z"/><path class="cls-33" d="M30.9,82.36V71a68.46,68.46,0,0,0-8,15.13v33.61a68.4,68.4,0,0,1,8-15.12V93.28q1.47-2.11,3.1-4.17v6.12a90.05,90.05,0,0,1,6.78-7.6V81.51C51.42,70.8,65.58,61.42,82.35,53.86V42.94q-4.48,2-8.7,4.21-2.12,1.1-4.16,2.23A128.88,128.88,0,0,0,41.74,69.64l-1,1V64.47A91.63,91.63,0,0,0,34,72.07v6.12q-1.64,2.07-3.1,4.17ZM20.69,82C27.1,54.5,54.05,30.8,92.28,16.06V72.43C54.05,87.18,27.1,110.87,20.69,138.38V82Z"/><path class="cls-34" d="M40.78,70.59l1-1V80.55A122,122,0,0,1,61.59,65q3.81-2.43,7.9-4.7V49.38q2-1.14,4.16-2.23V58.06q4.21-2.19,8.7-4.2v0C65.58,61.42,51.42,70.8,40.78,81.51V70.59ZM30.9,82.36q1.47-2.1,3.1-4.17V89.11q-1.64,2.06-3.1,4.17V82.36Z"/><path class="cls-35" d="M73.65,47.15q4.21-2.19,8.7-4.21V53.86q-4.48,2-8.7,4.2V47.15Z"/><path class="cls-35" d="M41.74,69.64A122,122,0,0,1,61.59,54.07V65A122,122,0,0,0,41.74,80.55V69.64Z"/><path class="cls-36" d="M61.59,54.07q3.81-2.43,7.9-4.69V60.29q-4.08,2.28-7.9,4.7V54.07Z"/><path class="cls-34" d="M22.89,86.14A68.46,68.46,0,0,1,30.9,71V82.36a68.46,68.46,0,0,0-8,15.13V108.4a68.4,68.4,0,0,1,8-15.12v11.35a68.4,68.4,0,0,0-8,15.12V86.14Z"/><path class="cls-35" d="M22.89,97.49a68.46,68.46,0,0,1,8-15.13V93.28a68.4,68.4,0,0,0-8,15.12V97.49Z"/><path class="cls-34" d="M34,89.11a90.05,90.05,0,0,1,6.78-7.6v6.12A90.05,90.05,0,0,0,34,95.23V89.11Zm0-17a91.63,91.63,0,0,1,6.78-7.6v6.12A91.63,91.63,0,0,0,34,78.19V72.07Z"/><path class="cls-35" d="M34,78.19a91.63,91.63,0,0,1,6.78-7.6V81.51A90.05,90.05,0,0,0,34,89.11V78.19Z"/><path class="cls-34" d="M335.57,67.26c8,10.52,12.8,22,13.62,34.11V136.8c-.82-12.07-5.6-23.58-13.62-34.11V67.26Z"/><path class="cls-25" d="M322.09,53a101.33,101.33,0,0,1,9.38,9.24V97.72a101.41,101.41,0,0,0-9.38-9.25V53Z"/><path class="cls-34" d="M304.33,40.18a137.35,137.35,0,0,1,11.95,8.14V83.75a137.35,137.35,0,0,0-11.95-8.14V40.18Z"/><path class="cls-34" d="M242.42,33.18q3.66.8,7.25,1.68V47.14q-3.58-.89-7.25-1.68V33.18Z"/><path class="cls-34" d="M229.05,43q3.81.61,7.55,1.33V54.46q-3.73-.72-7.55-1.33V43Z"/><path class="cls-34" d="M215.2,32.07q3.95.43,7.82,1v9q-3.87-.52-7.82-1v-9Z"/><path class="cls-34" d="M200.93,21.76q4,.24,8,.58V40.47c-2.66-.22-5.34-.42-8-.57V21.76Z"/><path class="cls-34" d="M186.28,13.34h.87c2.47,0,4.93.08,7.37.16V39.6c-2.44-.09-4.9-.14-7.37-.17h-.87V13.34Z"/><path class="cls-25" d="M171.64,21.56q4.05-.18,8.15-.24V39.45q-4.09.06-8.15.24V21.56Z"/><path class="cls-34" d="M157.34,17.86c2.64-.24,5.29-.46,8-.63V40q-4,.26-8,.63V17.86Z"/><path class="cls-25" d="M143.43,9.7q3.84-.55,7.74-1V41.32q-3.9.47-7.74,1V9.7Z"/><g class="cls-18"><path class="cls-37" d="M177.66,288.18a9.34,9.34,0,0,1,9.33,0l55.62,32a1.31,1.31,0,0,1,0,2.27l-56.08,32.38a8.2,8.2,0,0,1-8.24,0l-56.17-32.35a1.31,1.31,0,0,1,0-2.27Z"/></g><g class="cls-18"><path class="cls-38" d="M177.66,278.81a9.34,9.34,0,0,1,9.33,0l55.62,32a1.31,1.31,0,0,1,0,2.27l-56.08,32.38a8.2,8.2,0,0,1-8.24,0l-56.17-32.35a1.31,1.31,0,0,1,0-2.27Z"/></g><g class="cls-18"><path class="cls-39" d="M177.66,269.44a9.34,9.34,0,0,1,9.33,0l55.62,32a1.31,1.31,0,0,1,0,2.27l-56.08,32.38a8.2,8.2,0,0,1-8.24,0l-56.17-32.34a1.32,1.32,0,0,1,0-2.28Z"/></g><g class="cls-18"><path class="cls-40" d="M177.66,260.07a9.34,9.34,0,0,1,9.33,0l55.62,32a1.31,1.31,0,0,1,0,2.27l-56.08,32.38a8.2,8.2,0,0,1-8.24,0l-56.17-32.34a1.32,1.32,0,0,1,0-2.28Z"/></g><path class="cls-41" d="M122.12,292.13l55.54-32.06a9.34,9.34,0,0,1,9.33,0l55.62,32a1.3,1.3,0,0,1,.66,1.14v28.11a1.29,1.29,0,0,1-.66,1.13l-56.08,32.38a8.25,8.25,0,0,1-8.24,0l-56.17-32.35a1.3,1.3,0,0,1-.65-1.13V293.27h0A1.31,1.31,0,0,1,122.12,292.13Z"/><g class="cls-18"><path class="cls-42" d="M176.66,237.09a11.33,11.33,0,0,1,11.32,0l67.44,38.84a1.6,1.6,0,0,1,0,2.76l-68,39.26a10,10,0,0,1-10,0l-68.11-39.22a1.6,1.6,0,0,1,0-2.76Z"/></g><g class="cls-18"><path class="cls-43" d="M176.66,225.73a11.35,11.35,0,0,1,11.32,0l67.44,38.85a1.6,1.6,0,0,1,0,2.76l-68,39.26a10,10,0,0,1-10,0l-68.11-39.22a1.6,1.6,0,0,1,0-2.76Z"/></g><g class="cls-18"><path class="cls-44" d="M176.66,214.37a11.35,11.35,0,0,1,11.32,0l67.44,38.85a1.6,1.6,0,0,1,0,2.76l-68,39.26a10,10,0,0,1-10,0L109.32,256a1.6,1.6,0,0,1,0-2.76Z"/></g><g class="cls-18"><path class="cls-45" d="M176.66,203A11.33,11.33,0,0,1,188,203l67.44,38.85a1.6,1.6,0,0,1,0,2.76l-68,39.26a10,10,0,0,1-10,0l-68.11-39.22a1.6,1.6,0,0,1,0-2.76Z"/></g><path class="cls-46" d="M109.32,241.89,176.66,203A11.33,11.33,0,0,1,188,203l67.44,38.85a1.57,1.57,0,0,1,.79,1.38v34.08a1.56,1.56,0,0,1-.79,1.38l-68,39.26a10,10,0,0,1-10,0l-68.11-39.22a1.58,1.58,0,0,1-.8-1.38V243.27h0A1.57,1.57,0,0,1,109.32,241.89Z"/><g class="cls-18"><path class="cls-45" d="M176.66,203A11.33,11.33,0,0,1,188,203l67.44,38.85a1.6,1.6,0,0,1,0,2.76l-68,39.26a10,10,0,0,1-10,0l-68.11-39.22a1.6,1.6,0,0,1,0-2.76Z"/></g><path class="cls-47" d="M109.32,243.08l68.11,39.22a10,10,0,0,0,10,0l68-39.26a1.54,1.54,0,0,0,.59-.6,1.6,1.6,0,0,1-.59,2.17l-68,39.26a10,10,0,0,1-10,0l-68.11-39.22a1.6,1.6,0,0,1-.59-2.17A1.61,1.61,0,0,0,109.32,243.08Z"/><ellipse class="cls-48" cx="182.37" cy="243.35" rx="37.13" ry="21.44"/><path class="cls-49" d="M196.5,225.17s.9.94,1.84,2.05a25.09,25.09,0,0,0,4.68,3.34c1.1.69,6.17,4.53,7.23,8.31s-2.56,4.29-6.27,3.63-7.16-4.08-8.17-5.31a34.75,34.75,0,0,0-9.06-6.39c-4.55-2.35-1.8-5.52-1.8-5.52Z"/><path class="cls-49" d="M162.75,236.41a14,14,0,0,0-1,3.89c-.22,2.19-.52,6.93-.64,8.32a11.78,11.78,0,0,0,2.29,8c2.44,3.25,3.7,4.53,6.95,3.25s3.17-6.72,2.59-9.52a80.48,80.48,0,0,1-1-9.73,2,2,0,0,0-.18-1.08Z"/><path class="cls-50" d="M207.7,160.91s-.68,25-6.51,38.24a96.72,96.72,0,0,0-4.72,25.56,5,5,0,0,1-.4,4.34c-1.36,1.94-9.91,3.72-11.32-2.66s-.87-18.34.68-23.33-.55-18.72-.55-18.72-2.34,1.5-5.4,11.36-5.31,13.64-6.37,16.36-2,19.46-1.35,27.62c0,0-6.92,1-8.92-2.32s-2.67-20.43-2.17-25.88,2.79-22.94,2.48-28.35-1.44-9.8-.2-15.2,37.75-17.41,37.75-17.41Z"/><path class="cls-49" d="M163.15,183.13c-.31-5.41-1.44-9.8-.2-15.2.46-2,5.91-5,12.53-7.9,11.18-1,25.35-2.21,26.33-2.06a37.6,37.6,0,0,1,5.11,1.78l.78,1.16s0,1.52-.19,4c-2.61.78-7.62,0-7.62,0-.71,1.76-5.06,8-10.48,10.67s-21.27,1.77-22.18,2.79-1.08,14.7-1,16.44-1.5,12.68-3,22.36c-1.45,9.52.76,21.1.83,21.47a3.89,3.89,0,0,1-1.27-1.25c-2-3.31-2.67-20.43-2.17-25.88S163.46,188.54,163.15,183.13Z"/><path class="cls-51" d="M195.48,79.21s8.1,1.85,10.82,2.49a1.37,1.37,0,0,1,1,.85c.79,2,2.76,8.18,1.27,17.22a85.83,85.83,0,0,0-1.24,18.58l3.74,19.51s4.71,18.57,4.31,19.08-10.85,8.46-14.11,7.34-2.19-3-2.19-3-2.65,13.46-14.35,13.34-21.26-.1-23.25-4.83.55-24.61,2.61-32.48,7-23.57,7-23.57l-17.14-19,14.65-11.19s3.5-6.5,4.93-7.33,2.19-.12,2.19-.12Z"/><path class="cls-52" d="M201.06,160c0,.68.38,1.68,2.48,2.4,2.27.78,7.84-2.6,11.49-5.15-1.82,1.52-10.79,8.06-13.77,7a5.56,5.56,0,0,1-1.47-.73A25.1,25.1,0,0,0,201.06,160Z"/><path class="cls-53" d="M161.56,168.25c2.1,5,12.18,4.95,24.53,5.08a13.19,13.19,0,0,0,7.68-2.21,12.5,12.5,0,0,1-9.05,3.53c-11.7-.13-21.26-.1-23.25-4.83-.65-1.55-.81-4.74-.67-8.6C160.77,164.36,161,166.89,161.56,168.25Z"/><path class="cls-54" d="M173.81,76.12s-3,3.62,1.31,8.51a116.83,116.83,0,0,1,11.1,16.23c2.42,4.21,4.67,6.45,5.94,10.07,0,0,.18-4.3.35-10.93.16-6.26.24-12.76,0-14.4C191.9,82.23,177.12,74.48,173.81,76.12Z"/><path class="cls-55" d="M185,87s1.53,1,2.06.88a10,10,0,0,0,2.23-1.73s4.25-.08,4.71-1.9a38.86,38.86,0,0,1,1.2-4.6c.43-.94,2.26-5.48,2.28-7.33s-.06-5.13.74-6.87,1.86-19.18-15-18.69-11.6,18-11.6,18-1.23.52-.49,2.77.91,2.48,1.29,3.6a5,5,0,0,0,1.64,2.74l.28,2.07a8.34,8.34,0,0,0,1.29,6.25C177.75,85.25,185,87,185,87Z"/><path class="cls-50" d="M206.77,81.9s1.79.27,7.62,14.92c3.25,8.17,8.26,16.64,9.32,22.72s.47,12.57-.73,13-22.08,8.27-28.63,10.75a.62.62,0,0,1-.82-.48l-1.81-10.1,13-5a18.45,18.45,0,0,1,4.8-4.15s-2.61-4.8-2.44-6.11-.23-14.86,1.29-20.38S206.77,81.9,206.77,81.9Z"/><path class="cls-55" d="M199.16,120.62s1.79-1.2,2.23-1.37,2.84-1,3.29-1.2a9.12,9.12,0,0,1,2.43,0,.76.76,0,0,1,.6.39c.55,1,2.09,4,1.91,5.15,0,0-4.32,2.73-4.8,4l-.69.15S201.23,121.52,199.16,120.62Z"/><path class="cls-50" d="M164.08,137.34c.5-1.9,1.16-4.25,1.87-6.72l26.3,11.27A27.73,27.73,0,0,1,170.58,151a18.1,18.1,0,0,1-8.54-2.7A105.28,105.28,0,0,1,164.08,137.34Z"/><path class="cls-50" d="M153.91,94.8s6.93,1,12.54,9.84a134.17,134.17,0,0,1,9.68,19.16l.2,1.15a4.68,4.68,0,0,0,6.52,3.51c5.91-2.65,14.68-6.64,16.31-7.84a15.09,15.09,0,0,1,6.67,9.74c1.14,5.46.85,5.47.85,5.47s-23.35,10.9-32.37,10.8-20.46-29.76-21.72-35.89S149.94,96.53,153.91,94.8Z"/><path class="cls-56" d="M153.91,94.8s6.93,1,12.54,9.84a134.17,134.17,0,0,1,9.68,19.16l.2,1.15a4.68,4.68,0,0,0,6.52,3.51c5.91-2.65,14.68-6.64,16.31-7.84a15.09,15.09,0,0,1,6.67,9.74c1.14,5.46.85,5.47.85,5.47s-23.35,10.9-32.37,10.8-20.46-29.76-21.72-35.89S149.94,96.53,153.91,94.8Z"/><path class="cls-51" d="M179.49,129.84s-2.94,2.75-4.22,1.24-.91-1.67-.91-1.67-2.65,0-3-1.69-1.63-.78-1.71-2.63,2.15-1.47,2.15-1.47Z"/><path class="cls-55" d="M183.05,128.36s-.81-.75-1.85-1.64-2.74-4.54-3-4.86-3.81-3-5.51-3.07-.44,1.85,0,2.12,2,1.09,2,1.09,1.71,1.44,1.9,1.65-4.74-.34-5.52.14a1.32,1.32,0,0,0-.05,2.08,1.91,1.91,0,0,0,1,.34,1.72,1.72,0,0,0,.93,2.17c1.48.69,1.82.31,1.82.31s.13,2.56,2.58,2.06Z"/><path class="cls-57" d="M198.6,56.55s2.19,7-3.59,5-11-5.32-12.83-4c-1.39,1-1.32,3.92-1.21,5.28a2.11,2.11,0,0,1-.35,1.31l-1.72,2.49a2,2,0,0,0-.33,1l-.12,1.73a.87.87,0,0,1-.82.81l-.39,0a.87.87,0,0,1-.91-.72l-.45-2.54s-1.36-3.43-4.23-2.08c0,0-1.93-2.59-1.29-8.12s3.12-11.28,14-12.2S198.6,56.55,198.6,56.55Z"/><path class="cls-58" d="M182,93.17l1.62-1.26a8.86,8.86,0,0,1,2.09,2.57c.58,1.32,0,5.53,0,5.53l.5.85.61-1.11.51-5s-.55-3.68-.6-3.77a31.47,31.47,0,0,0-3.14.32A6.47,6.47,0,0,0,182,93.17Z"/><path class="cls-58" d="M189.82,88.22a5.55,5.55,0,0,1,2.52.77s-1.82.09-2.11.12S189.82,88.22,189.82,88.22Z"/><path class="cls-50" d="M186.52,88.61l-2.92,2.72a6.62,6.62,0,0,1,3.27,3.46s3.17.6,3.46-.55,0-4,.37-5.32S186.52,88.61,186.52,88.61Z"/><path class="cls-50" d="M190.21,94.17a15.72,15.72,0,0,0,1.14,3.37c.59,1,1.19,2.09,1.19,2.09l-.07,14s-5.14-10.59-6.25-12.73c0,0,.17-5.1.65-6.07S190.21,94.17,190.21,94.17Z"/><path class="cls-59" d="M176.42,73.53c3.37,9.74,12.87,12.63,12.87,12.63a10,10,0,0,1-2.23,1.73C186.53,88,185,87,185,87s-7.25-1.76-9.34-4.83a8.34,8.34,0,0,1-1.29-6.25l-.28-2.07A2.31,2.31,0,0,0,176.42,73.53Z"/><path class="cls-50" d="M168.7,84.93s1.33,4.6,1.5,4.77a20.88,20.88,0,0,0,3.35-.2L172,92.43s16,17.14,19.29,26.36a195.41,195.41,0,0,0-20.87-25.65l1.88-2.85-3.27.64Z"/><path class="cls-50" d="M195,80.87l.85,1-1,.93,3,2.67s.9,18.75-2.71,31.17c0,0,4.9-11.39,3.79-31.68l-3.2-2.17,1.05-1Z"/><path class="cls-49" d="M184.88,184.34l-.11.09,4.14-4.41c-1.91,2.7.29,15,.52,17.87s-2.21,8.66-3.13,15.49,1,16.58,1,16.61a5.26,5.26,0,0,1-2.52-3.6c-1.41-6.39-.87-18.34.68-23.33S184.88,184.34,184.88,184.34Z"/><path class="cls-60" d="M174.31,146.63c-9-.11-20.46-29.76-21.72-35.89-.21-1-.42-2.1-.62-3.2,0,.09,2.37,6.5,4.63,12.17s14.32,23,20.48,24.17c5.55,1,25.53-8.31,29.4-10.15.35,2.09.2,2.1.2,2.1S183.33,146.73,174.31,146.63Z"/><path class="cls-61" d="M177.24,70.09a.87.87,0,0,1-.91-.72l-.45-2.54s-1.36-3.43-4.23-2.08c0,0-1.82-2.46-1.33-7.68,3.2,4.8,10.3,7,10.3,7l-1.72,2.49a2,2,0,0,0-.33,1l-.12,1.73a.87.87,0,0,1-.82.81Z"/><path class="cls-33" d="M71.63,211.87v-9.52q2.87,1.53,5.86,3v9.52c-2-1-3.95-2-5.86-3ZM52.88,200V182.42c1.58,1.19,3.21,2.37,4.89,3.51v17.56q-2.52-1.73-4.89-3.52Zm8.94,6.18v-20.7q2.62,1.67,5.39,3.26v20.7q-2.76-1.59-5.39-3.26Zm-24-19.77v-23c1.21,1.34,2.49,2.66,3.81,4v23c-1.32-1.3-2.6-2.62-3.81-4Zm7,7V168.48q2.12,1.92,4.37,3.75v24.89q-2.25-1.85-4.37-3.75Zm-17.93-22v-27q1.21,2.19,2.61,4.33v27q-1.39-2.15-2.61-4.33Zm4.9,7.67v-35.1q1.53,2.1,3.23,4.16v35.1q-1.7-2.06-3.23-4.16Zm-8.64-15.64V123.75c.59,1.52,1.24,3,1.95,4.5v39.64q-1.07-2.22-1.95-4.5Zm66.33,8.8C51.8,157,25.75,133,20.29,105.49v56.38c5.46,27.5,31.51,51.5,69.23,66.7V172.19Z"/><path class="cls-33" d="M200.11,234.81V222.1q9.73-.54,19.12-1.7v12.72q-9.37,1.15-19.12,1.69Zm-30.5.06V211.7q5.83.28,11.78.35,4.06,0,8.08,0V235.2q-4,.08-8.08,0-5.94-.06-11.78-.36Zm-29.39-3V196.4c6.14,1,12.44,1.75,18.86,2.31v35.43c-6.42-.56-12.72-1.33-18.86-2.31Zm89.06-.15V194.26q9.15-1.48,17.86-3.55v37.42q-8.7,2.06-17.86,3.55Zm32.9-53.54c-24,7.4-51.59,11.47-80.79,11.18a274.08,274.08,0,0,1-57.66-6.56v56.38a274.75,274.75,0,0,0,57.66,6.55c29.2.3,56.76-3.78,80.79-11.17V178.14Z"/><path class="cls-33" d="M302.68,194.27V183.35c26.31-15.53,43.43-36.25,46.23-59.29V135c-2.8,23-19.92,43.75-46.23,59.29Zm46.61-41.58V96.32c-.84,27.57-22.15,52.19-55.48,69.16v56.37c33.33-17,54.64-41.58,55.48-69.16Z"/><path class="cls-34" d="M348.91,124.06c-2.8,23-19.92,43.76-46.23,59.29v10.92C329,178.73,346.11,158,348.91,135V124.06Z"/><path class="cls-25" d="M159.08,198.71c-6.42-.56-12.72-1.34-18.86-2.31v35.43c6.14,1,12.44,1.75,18.86,2.31V198.71Z"/><path class="cls-25" d="M219.23,220.4q-9.37,1.15-19.12,1.7v12.71q9.73-.52,19.12-1.69V220.4Z"/><path class="cls-25" d="M247.14,190.71q-8.7,2.06-17.86,3.55v37.42q9.15-1.49,17.86-3.55V190.71Z"/><path class="cls-34" d="M189.47,212q-4,.07-8.08,0-5.94-.06-11.78-.35v23.17q5.83.3,11.78.36,4.06,0,8.08,0V212Z"/><path class="cls-25" d="M25.14,128.25c-.71-1.49-1.36-3-1.95-4.5v39.64q.89,2.28,1.95,4.5V128.25Z"/><path class="cls-25" d="M29.54,148.71q-1.39-2.15-2.61-4.33v27q1.21,2.19,2.61,4.33v-27Z"/><path class="cls-34" d="M35.06,148.09q-1.7-2.06-3.23-4.16V179q1.53,2.1,3.23,4.16v-35.1Z"/><path class="cls-25" d="M41.64,167.37c-1.32-1.3-2.6-2.62-3.81-4v23c1.21,1.34,2.49,2.66,3.81,4v-23Z"/><path class="cls-34" d="M49.23,172.23q-2.25-1.83-4.37-3.75v24.89q2.12,1.9,4.37,3.75V172.23Z"/><path class="cls-34" d="M57.77,185.93c-1.68-1.14-3.31-2.32-4.89-3.51V200q2.37,1.8,4.89,3.52V185.93Z"/><path class="cls-34" d="M67.21,188.71q-2.76-1.59-5.39-3.26v20.7q2.62,1.66,5.39,3.26v-20.7Z"/><path class="cls-34" d="M77.49,205.34q-3-1.46-5.86-3v9.52c1.91,1,3.86,2,5.86,3v-9.52Z"/></g></g></g></svg>