<svg width="44" height="33" viewBox="0 0 44 33" fill="none" xmlns="http://www.w3.org/2000/svg">
<path d="M26.5263 32C26.5263 32.5523 26.974 33 27.5263 33C28.0786 33 28.5263 32.5523 28.5263 32H26.5263ZM0 32C0 32.5523 0.447715 33 1 33C1.55228 33 2 32.5523 2 32H0ZM35.3684 25.8C35.3684 26.3523 35.8161 26.8 36.3684 26.8C36.9207 26.8 37.3684 26.3523 37.3684 25.8H35.3684ZM37.3684 13.4C37.3684 12.8477 36.9207 12.4 36.3684 12.4C35.8161 12.4 35.3684 12.8477 35.3684 13.4H37.3684ZM29.7368 18.6C29.1846 18.6 28.7368 19.0477 28.7368 19.6C28.7368 20.1523 29.1846 20.6 29.7368 20.6V18.6ZM43 20.6C43.5523 20.6 44 20.1523 44 19.6C44 19.0477 43.5523 18.6 43 18.6V20.6ZM28.5263 32C28.5263 29.2467 26.7387 26.9066 24.1706 25.3059C21.588 23.6963 18.0826 22.7333 14.2632 22.7333V24.7333C17.7687 24.7333 20.8949 25.621 23.1127 27.0032C25.3449 28.3945 26.5263 30.1878 26.5263 32H28.5263ZM14.2632 22.7333C10.4437 22.7333 6.93832 23.6963 4.35574 25.3059C1.78762 26.9066 0 29.2467 0 32H2C2 30.1878 3.18144 28.3945 5.41364 27.0032C7.63138 25.621 10.7576 24.7333 14.2632 24.7333V22.7333ZM37.3684 25.8V13.4H35.3684V25.8H37.3684ZM29.7368 20.6H43V18.6H29.7368V20.6ZM14.2632 16.5333C9.86763 16.5333 6.42105 13.2176 6.42105 9.26667H4.42105C4.42105 14.4468 8.89196 18.5333 14.2632 18.5333V16.5333ZM6.42105 9.26667C6.42105 5.31572 9.86763 2 14.2632 2V0C8.89196 0 4.42105 4.08651 4.42105 9.26667H6.42105ZM14.2632 2C18.6587 2 22.1053 5.31572 22.1053 9.26667H24.1053C24.1053 4.08651 19.6343 0 14.2632 0V2ZM22.1053 9.26667C22.1053 13.2176 18.6587 16.5333 14.2632 16.5333V18.5333C19.6343 18.5333 24.1053 14.4468 24.1053 9.26667H22.1053Z" fill="white"/>
</svg>
