<svg width="51" height="48" viewBox="0 0 51 48" fill="none" xmlns="http://www.w3.org/2000/svg">
<path d="M34.9694 39.7355C34.9694 40.2878 35.4171 40.7355 35.9694 40.7355C36.5217 40.7355 36.9694 40.2878 36.9694 39.7355H34.9694ZM13.8733 39.7355C13.8733 40.2878 14.321 40.7355 14.8733 40.7355C15.4255 40.7355 15.8733 40.2878 15.8733 39.7355H13.8733ZM43.4078 33.796C43.4078 34.3482 43.8555 34.796 44.4078 34.796C44.9601 34.796 45.4078 34.3482 45.4078 33.796H43.4078ZM38.3179 27.3798C37.7816 27.2479 37.2399 27.5757 37.1079 28.112C36.976 28.6483 37.3038 29.19 37.8401 29.3219L38.3179 27.3798ZM5.43481 33.796C5.43481 34.3482 5.88253 34.796 6.43481 34.796C6.9871 34.796 7.43481 34.3482 7.43481 33.796H5.43481ZM13.0025 29.3219C13.5388 29.19 13.8666 28.6483 13.7347 28.112C13.6028 27.5757 13.0611 27.2479 12.5248 27.3798L13.0025 29.3219ZM37.4358 19.6395C37.0129 19.9947 36.9581 20.6255 37.3133 21.0484C37.6685 21.4713 38.2993 21.5262 38.7222 21.171L37.4358 19.6395ZM28.9974 10.7855C28.5745 11.1408 28.5196 11.7715 28.8748 12.1944C29.23 12.6173 29.8608 12.6722 30.2837 12.317L28.9974 10.7855ZM12.1205 21.171C12.5434 21.5262 13.1742 21.4713 13.5294 21.0484C13.8846 20.6255 13.8297 19.9947 13.4068 19.6395L12.1205 21.171ZM20.5589 12.317C20.9818 12.6722 21.6126 12.6173 21.9678 12.1944C22.323 11.7715 22.2682 11.1408 21.8453 10.7855L20.5589 12.317ZM36.9694 39.7355C36.9694 37.5742 35.424 35.8206 33.3706 34.6644C31.286 33.4906 28.4735 32.7962 25.4213 32.7962V34.7962C28.1947 34.7962 30.6562 35.4313 32.3893 36.4071C34.1535 37.4005 34.9694 38.6166 34.9694 39.7355H36.9694ZM25.4213 32.7962C22.3692 32.7962 19.5567 33.4906 17.4721 34.6644C15.4186 35.8206 13.8733 37.5742 13.8733 39.7355H15.8733C15.8733 38.6166 16.6891 37.4005 18.4534 36.4071C20.1864 35.4313 22.6479 34.7962 25.4213 34.7962V32.7962ZM45.4078 33.796C45.4078 32.1944 44.5486 30.8056 43.2854 29.7396C42.0224 28.6737 40.2886 27.8646 38.3179 27.3798L37.8401 29.3219C39.5948 29.7536 41.0254 30.4493 41.9955 31.268C42.9653 32.0865 43.4078 32.962 43.4078 33.796H45.4078ZM7.43481 33.796C7.43481 32.962 7.87731 32.0865 8.84717 31.268C9.81728 30.4493 11.2478 29.7536 13.0025 29.3219L12.5248 27.3798C10.5541 27.8646 8.82023 28.6737 7.55727 29.7396C6.29405 30.8056 5.43481 32.1944 5.43481 33.796H7.43481ZM25.4213 26.8569C22.4175 26.8569 20.0925 24.5866 20.0925 21.9176H18.0925C18.0925 25.8089 21.4345 28.8569 25.4213 28.8569V26.8569ZM20.0925 21.9176C20.0925 19.2485 22.4175 16.9783 25.4213 16.9783V14.9783C21.4345 14.9783 18.0925 18.0262 18.0925 21.9176H20.0925ZM25.4213 16.9783C28.4251 16.9783 30.7502 19.2485 30.7502 21.9176H32.7502C32.7502 18.0262 29.4081 14.9783 25.4213 14.9783V16.9783ZM30.7502 21.9176C30.7502 24.5866 28.4251 26.8569 25.4213 26.8569V28.8569C29.4081 28.8569 32.7502 25.8089 32.7502 21.9176H30.7502ZM38.7222 21.171C40.2237 19.9098 41.1886 18.0572 41.1886 15.9783H39.1886C39.1886 17.4174 38.5238 18.7256 37.4358 19.6395L38.7222 21.171ZM41.1886 15.9783C41.1886 12.0869 37.8466 9.03894 33.8598 9.03894V11.0389C36.8636 11.0389 39.1886 13.3092 39.1886 15.9783H41.1886ZM33.8598 9.03894C32.0016 9.03894 30.2957 9.695 28.9974 10.7855L30.2837 12.317C31.2247 11.5266 32.476 11.0389 33.8598 11.0389V9.03894ZM13.4068 19.6395C12.3188 18.7256 11.654 17.4174 11.654 15.9783H9.65404C9.65404 18.0572 10.6189 19.9098 12.1205 21.171L13.4068 19.6395ZM11.654 15.9783C11.654 13.3092 13.979 11.0389 16.9829 11.0389V9.03894C12.9961 9.03894 9.65404 12.0869 9.65404 15.9783H11.654ZM16.9829 11.0389C18.3666 11.0389 19.6179 11.5266 20.5589 12.317L21.8453 10.7855C20.5469 9.695 18.841 9.03894 16.9829 9.03894V11.0389Z" fill="white"/>
</svg>
