<svg width="39" height="44" viewBox="0 0 39 44" fill="none" xmlns="http://www.w3.org/2000/svg">
<path d="M24.125 17.3333V33.6667M14.875 17.3333L14.875 33.6667M1 8H38M33.375 8V35.5333C33.375 38.1469 33.3755 39.4538 32.8714 40.4521C32.428 41.3302 31.7195 42.0439 30.8493 42.4913C29.8599 42.9999 28.5657 43 25.9755 43H13.0255C10.4352 43 9.13912 42.9999 8.14978 42.4913C7.27953 42.0439 6.57251 41.3302 6.1291 40.4521C5.625 39.4538 5.625 38.1469 5.625 35.5333V8H33.375ZM28.75 8H10.25C10.25 5.82561 10.25 4.73838 10.6021 3.88078C11.0715 2.73731 11.9712 1.82887 13.1045 1.35523C13.9544 1 15.0325 1 17.1875 1H21.8125C23.9675 1 25.045 1 25.8949 1.35523C27.0282 1.82887 27.9283 2.73731 28.3977 3.88078C28.7498 4.73838 28.75 5.82561 28.75 8Z" stroke="#B0AEAE" stroke-width="2" stroke-linecap="round" stroke-linejoin="round"/>
</svg>
