<?xml version="1.0" encoding="UTF-8" standalone="no" ?>
<!DOCTYPE svg PUBLIC "-//W3C//DTD SVG 1.1//EN" "http://www.w3.org/Graphics/SVG/1.1/DTD/svg11.dtd">
<svg xmlns="http://www.w3.org/2000/svg" xmlns:xlink="http://www.w3.org/1999/xlink" version="1.1" width="1080" height="1080" viewBox="0 0 1080 1080" xml:space="preserve">
<desc>Created with Fabric.js 5.2.4</desc>
<defs>
</defs>
<g transform="matrix(1 0 0 1 540 540)" id="f1739b7e-a319-4bce-87f5-7f06b52a01b9"  >
<rect style="stroke: none; stroke-width: 1; stroke-dasharray: none; stroke-linecap: butt; stroke-dashoffset: 0; stroke-linejoin: miter; stroke-miterlimit: 4; fill: rgb(255,255,255); fill-rule: nonzero; opacity: 1; visibility: hidden;" vector-effect="non-scaling-stroke"  x="-540" y="-540" rx="0" ry="0" width="1080" height="1080" />
</g>
<g transform="matrix(1 0 0 1 540 540)" id="70f8039f-bda0-4654-a01f-99d8d210673a"  >
</g>
<g transform="matrix(1 0 0 1 540 540)" id="04504d93-738d-4c88-bc4d-799932e9778c"  >
<path style="stroke: rgb(0,0,0); stroke-width: 0; stroke-dasharray: none; stroke-linecap: butt; stroke-dashoffset: 0; stroke-linejoin: miter; stroke-miterlimit: 4; fill: rgb(255,255,255); fill-rule: nonzero; opacity: 1;" vector-effect="non-scaling-stroke"  transform=" translate(-16.5, -16.5)" d="M 29.5556 21.6667 C 29.5556 21.1144 29.1078 20.6667 28.5556 20.6667 C 28.0033 20.6667 27.5556 21.1144 27.5556 21.6667 L 29.5556 21.6667 Z M 11.3337 5.44444 C 11.886 5.44444 12.3337 4.99673 12.3337 4.44444 C 12.3337 3.89216 11.886 3.44444 11.3337 3.44444 L 11.3337 5.44444 Z M 1.37542 6.32518 L 2.26643 6.77917 L 1.37542 6.32518 Z M 2.88032 4.81987 L 3.33431 5.71087 L 2.88032 4.81987 Z M 2.88032 31.6245 L 3.33431 30.7335 L 3.33431 30.7335 L 2.88032 31.6245 Z M 1.37542 30.1193 L 0.484415 30.5733 L 0.484415 30.5733 L 1.37542 30.1193 Z M 28.1805 30.1193 L 27.2895 29.6653 L 28.1805 30.1193 Z M 26.6745 31.6245 L 26.2205 30.7335 L 26.6745 31.6245 Z M 11.3333 21.6667 L 10.3333 21.6667 C 10.3333 22.219 10.781 22.6667 11.3333 22.6667 L 11.3333 21.6667 Z M 11.3333 16.5 L 10.6262 15.7929 C 10.4387 15.9804 10.3333 16.2348 10.3333 16.5 L 11.3333 16.5 Z M 26.8333 1 L 27.5404 0.292893 C 27.1499 -0.0976311 26.5168 -0.0976311 26.1262 0.292893 L 26.8333 1 Z M 32 6.16667 L 32.7071 6.87377 C 33.0976 6.48325 33.0976 5.85008 32.7071 5.45956 L 32 6.16667 Z M 16.5 21.6667 L 16.5 22.6667 C 16.7652 22.6667 17.0196 22.5613 17.2071 22.3738 L 16.5 21.6667 Z M 22.3738 5.45956 C 21.9832 5.06904 21.3501 5.06904 20.9596 5.45956 C 20.569 5.85008 20.569 6.48325 20.9596 6.87377 L 22.3738 5.45956 Z M 26.1262 12.0404 C 26.5168 12.431 27.1499 12.431 27.5404 12.0404 C 27.931 11.6499 27.931 11.0168 27.5404 10.6262 L 26.1262 12.0404 Z M 27.5556 21.6667 L 27.5556 26.4889 L 29.5556 26.4889 L 29.5556 21.6667 L 27.5556 21.6667 Z M 23.0448 31 L 6.51145 31 L 6.51145 33 L 23.0448 33 L 23.0448 31 Z M 2 26.4889 L 2 9.95558 L 0 9.95558 L 0 26.4889 L 2 26.4889 Z M 6.51145 5.44444 L 11.3337 5.44444 L 11.3337 3.44444 L 6.51145 3.44444 L 6.51145 5.44444 Z M 2 9.95558 C 2 8.97454 2.00078 8.29891 2.04361 7.77471 C 2.08548 7.26219 2.16252 6.98311 2.26643 6.77917 L 0.484415 5.87119 C 0.212905 6.40406 0.102229 6.97564 0.0502489 7.61185 C -0.000777719 8.23638 0 9.00754 0 9.95558 L 2 9.95558 Z M 6.51145 3.44444 C 5.5634 3.44444 4.79208 3.44367 4.16738 3.49469 C 3.53107 3.54666 2.95926 3.65732 2.42633 3.92886 L 3.33431 5.71087 C 3.53818 5.60699 3.8174 5.52994 4.33019 5.48805 C 4.85459 5.44522 5.53042 5.44444 6.51145 5.44444 L 6.51145 3.44444 Z M 2.26643 6.77917 C 2.50092 6.31896 2.87461 5.9451 3.33431 5.71087 L 2.42633 3.92886 C 1.58979 4.3551 0.910388 5.03517 0.484415 5.87119 L 2.26643 6.77917 Z M 6.51145 31 C 5.53044 31 4.8546 30.9992 4.33021 30.9564 C 3.81743 30.9145 3.5382 30.8374 3.33431 30.7335 L 2.42633 32.5155 C 2.95924 32.7871 3.53104 32.8977 4.16735 32.9497 C 4.79206 33.0008 5.56339 33 6.51145 33 L 6.51145 31 Z M 0 26.4889 C 0 27.4369 -0.00077774 28.2081 0.050249 28.8326 C 0.10223 29.4688 0.212906 30.0404 0.484415 30.5733 L 2.26643 29.6653 C 2.16252 29.4613 2.08548 29.1823 2.04361 28.6698 C 2.00078 28.1456 2 27.4699 2 26.4889 L 0 26.4889 Z M 3.33431 30.7335 C 2.87457 30.4993 2.5009 30.1255 2.26643 29.6653 L 0.484415 30.5733 C 0.910409 31.4093 1.58983 32.0893 2.42633 32.5155 L 3.33431 30.7335 Z M 27.5556 26.4889 C 27.5556 27.47 27.5549 28.1456 27.5121 28.6699 C 27.4703 29.1825 27.3933 29.4615 27.2895 29.6653 L 29.0715 30.5733 C 29.3431 30.0403 29.4536 29.4686 29.5055 28.8325 C 29.5564 28.208 29.5556 27.4368 29.5556 26.4889 L 27.5556 26.4889 Z M 23.0448 33 C 23.9928 33 24.7638 33.0008 25.3882 32.9497 C 26.0244 32.8977 26.5957 32.787 27.1285 32.5155 L 26.2205 30.7335 C 26.0165 30.8375 25.7375 30.9145 25.2253 30.9564 C 24.7013 30.9992 24.0258 31 23.0448 31 L 23.0448 33 Z M 27.2895 29.6653 C 27.0554 30.1248 26.6809 30.4989 26.2205 30.7335 L 27.1285 32.5155 C 27.9643 32.0897 28.6452 31.41 29.0715 30.5733 L 27.2895 29.6653 Z M 12.3333 21.6667 L 12.3333 16.5 L 10.3333 16.5 L 10.3333 21.6667 L 12.3333 21.6667 Z M 12.0404 17.2071 L 27.5404 1.70711 L 26.1262 0.292893 L 10.6262 15.7929 L 12.0404 17.2071 Z M 26.1262 1.70711 L 31.2929 6.87377 L 32.7071 5.45956 L 27.5404 0.292893 L 26.1262 1.70711 Z M 31.2929 5.45956 L 15.7929 20.9596 L 17.2071 22.3738 L 32.7071 6.87377 L 31.2929 5.45956 Z M 16.5 20.6667 L 11.3333 20.6667 L 11.3333 22.6667 L 16.5 22.6667 L 16.5 20.6667 Z M 20.9596 6.87377 L 26.1262 12.0404 L 27.5404 10.6262 L 22.3738 5.45956 L 20.9596 6.87377 Z" stroke-linecap="round" />
</g>
</svg>