<svg width="43" height="40" viewBox="0 0 43 40" fill="none" xmlns="http://www.w3.org/2000/svg">
<path d="M9.49801 15.513L8.87382 14.7318L9.49801 15.513ZM17.9365 8.77111L17.3123 7.98984L17.3123 7.98984L17.9365 8.77111ZM25.3459 8.77111L24.7217 9.55237V9.55237L25.3459 8.77111ZM33.7843 15.513L33.1601 16.2943L33.7843 15.513ZM20.6435 6.99874L20.9042 7.96417L20.6435 6.99874ZM22.6385 6.99874L22.3778 7.96417L22.6385 6.99874ZM7.69112 17.6931L8.65253 17.9682L7.69112 17.6931ZM8.1838 16.7015L7.38128 16.1049H7.38128L8.1838 16.7015ZM9.49629 32.7502L9.91812 31.8436L9.49629 32.7502ZM7.96013 31.3472L7.08689 31.8345H7.08689L7.96013 31.3472ZM35.3222 31.3472L34.449 30.8599L35.3222 31.3472ZM33.7849 32.7502L33.3631 31.8436L33.7849 32.7502ZM35.5909 17.6931L34.6295 17.9682L35.5909 17.6931ZM35.0981 16.7015L35.9007 16.1049V16.1049L35.0981 16.7015ZM34.7051 19.3788V27.9635H36.7051V19.3788H34.7051ZM30.0798 32.1H13.2029V34.1H30.0798V32.1ZM8.5769 27.9635V19.3788H6.5769V27.9635H8.5769ZM10.1222 16.2943L18.5607 9.55237L17.3123 7.98984L8.87382 14.7318L10.1222 16.2943ZM24.7217 9.55237L33.1601 16.2943L34.4085 14.7318L25.9701 7.98984L24.7217 9.55237ZM18.5607 9.55238C19.2286 9.01876 19.687 8.6533 20.0692 8.39227C20.4401 8.13896 20.6841 8.02361 20.9042 7.96417L20.3828 6.03332C19.8644 6.17331 19.4111 6.41981 18.9413 6.74066C18.4828 7.05379 17.9569 7.47479 17.3123 7.98984L18.5607 9.55238ZM25.9701 7.98984C24.7316 7.00037 23.8875 6.30019 22.8991 6.03332L22.3778 7.96417C22.8666 8.09617 23.335 8.44452 24.7217 9.55237L25.9701 7.98984ZM20.9042 7.96417C21.3843 7.83454 21.8977 7.83454 22.3778 7.96417L22.8991 6.03332C22.0776 5.81148 21.2044 5.81148 20.3828 6.03332L20.9042 7.96417ZM8.5769 19.3788C8.5769 18.4643 8.58589 18.2011 8.65253 17.9682L6.72972 17.418C6.56792 17.9833 6.5769 18.5779 6.5769 19.3788H8.5769ZM8.87382 14.7318C8.20975 15.2623 7.73059 15.635 7.38128 16.1049L8.98631 17.2981C9.1445 17.0854 9.37236 16.8934 10.1222 16.2943L8.87382 14.7318ZM8.65253 17.9682C8.71983 17.7331 8.83166 17.5061 8.98631 17.2981L7.38128 16.1049C7.08619 16.5018 6.86486 16.9457 6.72972 17.418L8.65253 17.9682ZM13.2029 32.1C12.2032 32.1 11.5082 32.0994 10.9675 32.0591C10.436 32.0195 10.1379 31.9458 9.91812 31.8436L9.07447 33.6569C9.60677 33.9046 10.1774 34.0058 10.8189 34.0536C11.4512 34.1007 12.2334 34.1 13.2029 34.1V32.1ZM6.5769 27.9635C6.5769 28.8444 6.57597 29.5709 6.62879 30.1612C6.68291 30.766 6.79924 31.319 7.08689 31.8345L8.83337 30.8599C8.73779 30.6886 8.66251 30.4487 8.62083 29.9829C8.57784 29.5025 8.5769 28.8805 8.5769 27.9635H6.5769ZM9.91812 31.8436C9.43657 31.6195 9.06221 31.27 8.83337 30.8599L7.08689 31.8345C7.53223 32.6325 8.23285 33.2654 9.07447 33.6569L9.91812 31.8436ZM34.7051 27.9635C34.7051 28.8806 34.7042 29.5026 34.6613 29.9831C34.6197 30.4489 34.5445 30.6887 34.449 30.8599L36.1955 31.8345C36.4832 31.3189 36.5994 30.7658 36.6534 30.161C36.7061 29.5708 36.7051 28.8443 36.7051 27.9635H34.7051ZM30.0798 34.1C31.0492 34.1 31.8311 34.1007 32.4631 34.0536C33.1044 34.0058 33.6746 33.9045 34.2068 33.6569L33.3631 31.8436C33.1432 31.9459 32.8454 32.0195 32.3144 32.0591C31.7741 32.0994 31.0795 32.1 30.0798 32.1V34.1ZM34.449 30.8599C34.2205 31.2693 33.8454 31.6192 33.3631 31.8436L34.2068 33.6569C35.0477 33.2657 35.7498 32.6332 36.1955 31.8345L34.449 30.8599ZM36.7051 19.3788C36.7051 18.578 36.7141 17.9834 36.5523 17.418L34.6295 17.9682C34.6961 18.2011 34.7051 18.4642 34.7051 19.3788H36.7051ZM33.1601 16.2943C33.9096 16.8931 34.1374 17.0853 34.2956 17.2981L35.9007 16.1049C35.5514 15.6351 35.0729 15.2626 34.4085 14.7318L33.1601 16.2943ZM36.5523 17.418C36.4171 16.9456 36.1957 16.5017 35.9007 16.1049L34.2956 17.2981C34.4504 17.5063 34.5622 17.7332 34.6295 17.9682L36.5523 17.418Z" fill="white"/>
</svg>
