<svg width="38" height="39" viewBox="0 0 38 39" fill="none" xmlns="http://www.w3.org/2000/svg">
<path d="M18.6667 26.2083L25.2917 19.3333M25.2917 19.3333L18.6667 12.4583M25.2917 19.3333L1 19.3333M12.0417 30.7917C12.0417 32.9272 12.0417 33.995 12.3779 34.8373C12.8261 35.9603 13.6854 36.8526 14.7676 37.3178C15.5792 37.6667 16.6088 37.6667 18.6667 37.6667H29.2667C31.7402 37.6667 32.9766 37.6666 33.9214 37.167C34.7524 36.7276 35.429 36.0266 35.8524 35.1642C36.3338 34.1838 36.3333 32.9001 36.3333 30.3332V8.33322C36.3333 5.76631 36.3338 4.48302 35.8524 3.50259C35.429 2.64018 34.7524 1.93897 33.9214 1.49955C32.9766 1 31.7402 1 29.2667 1H18.6667C16.6088 1 15.5792 1 14.7676 1.34889C13.6854 1.81407 12.8261 2.70629 12.3779 3.82934C12.0417 4.67162 12.0417 5.7394 12.0417 7.87497" stroke="#B0AEAE" stroke-width="2" stroke-linecap="round" stroke-linejoin="round"/>
</svg>
