<svg xmlns="http://www.w3.org/2000/svg" xmlns:xlink="http://www.w3.org/1999/xlink" viewBox="0 0 194.01 185.73"><defs><style>.cls-1{fill:url(#linear-gradient);}.cls-2{fill:url(#linear-gradient-2);}.cls-3{fill:url(#linear-gradient-3);}.cls-4{fill:url(#linear-gradient-4);}.cls-5{fill:url(#linear-gradient-5);}.cls-6{fill:url(#linear-gradient-6);}.cls-7{fill:url(#linear-gradient-7);}</style><linearGradient id="linear-gradient" y1="92.87" x2="164.25" y2="92.87" gradientUnits="userSpaceOnUse"><stop offset="0" stop-color="#27859c"/><stop offset="0.54" stop-color="#0e5466" stop-opacity="0.94"/><stop offset="0.82" stop-color="#003947" stop-opacity="0.9"/></linearGradient><linearGradient id="linear-gradient-2" x1="77.03" y1="154.47" x2="117.52" y2="154.47" xlink:href="#linear-gradient"/><linearGradient id="linear-gradient-3" x1="119.13" y1="114.57" x2="179.42" y2="114.57" xlink:href="#linear-gradient"/><linearGradient id="linear-gradient-4" x1="153.3" y1="72.71" x2="194.01" y2="72.71" xlink:href="#linear-gradient"/><linearGradient id="linear-gradient-5" x1="136.56" y1="164.7" x2="162.52" y2="164.7" xlink:href="#linear-gradient"/><linearGradient id="linear-gradient-6" x1="100.87" y1="93.77" x2="132.13" y2="93.77" xlink:href="#linear-gradient"/><linearGradient id="linear-gradient-7" x1="106.8" y1="169.61" x2="131.45" y2="169.61" xlink:href="#linear-gradient"/></defs><g id="Layer_2" data-name="Layer 2"><g id="Layer_2-2" data-name="Layer 2"><path class="cls-1" d="M74,86.69c-.39,2.83,3.71,4.75,6,6,3.19,1.67,4,1.1,6.78,2.72A18.16,18.16,0,0,1,92,100.16a20.29,20.29,0,0,1,4,10.62s.85,8.49-9,18c0,0-12.38,13.53-9.79,1.73S97,108.18,87.47,109.62c0,0-5.59-.14-10.49,7.06,0,0-1.72,7.2-8.06-2.88,0,0-5.47-6.91-11.23-8.06,0,0-11.81,0,.29,7.2a27,27,0,0,1,6.62,6,27.92,27.92,0,0,1,5.76,14.88A133.22,133.22,0,0,1,71.22,153a55,55,0,0,0,.87,12.17,22.93,22.93,0,0,0,2.51,7.55,35,35,0,0,0,3.68,5.05c3.23,3.94,4.47,4.58,4.27,5.53-.23,1.12-2.36,2.25-10.25,2.46-1.91-.33-3.93-.76-6-1.3a78.6,78.6,0,0,1-10.59-3.52s12.25-21.32,11.67-30.24c0,0,5.9-25.06-11.38-30.82,0,0-11.81-7.78-31.1,6.05,0,0-7.49,7.49-3.46,9.5,0,0,3.46,3.17,7.49-3.17,0,0,6.91-7.77,16.7-8.35,0,0,11.81-1.33,15,10,0,0,5.18,12.76-2,24.28-6.63,12.32-7.25,16.35-6,17.28s4.84-1.12,5.12-1.29a9.48,9.48,0,0,0,3.78-4.31l-5.73,11.08c-17.17-6.43-20.55-11.53-20.52-15,0-4,6-9,10.59-17.5,1.44-2.66,5.11-6.76,1.65-10.72,0,0-4.25-4.25-6.12,4.46s-15.62,10.58-15.62,10.58-8.79,0-12.75-10.87S13,124,13,124s3.43-6.89,13.15-10.92c0,0,7.92-3.38,13.83-1.73,0,0,4.75,1.3,5-2.88,0,0,1.16-2.66-4.24-3.31,0,0-8.57-1.8-18.65,3.17,0,0-8.07,2.88-13.9,13.18,0,0-2.59,7-4.1-1s1.51-14.11,5.54-19.23c0,0,10.8-12.67,23.11-6A50.23,50.23,0,0,0,37,97.86a16.64,16.64,0,0,0,5.64,2.26c1.51.24,2.66.41,3.58-.35a3.19,3.19,0,0,0,.88-3.46,3.59,3.59,0,0,0-1.74-1.78c-3.89-2.31-5.83-3.47-6-3.55-5.55-2.2-12.17-2-13.54-2,0,0-6.26-.14,1.23-5.9s1.15-23.83-.72-27.94c0,0-5.55-5.25-5.4,3.39s4.68,18.93-.72,23.4S9.52,87.81,5.92,95.3.59,86.8.59,86.8s-3.67-12,7.27-31.46c0,0,3.1-9.79,12-8.86,5.79.46,8.83.18,9.1-.85q.27-1-3-3c-1.33-.54-4.25-1.94-5.19-4.76-1.14-3.47,1.46-6.91,4-10.22,4.65-6,14.77-15.42,20.81-12.29a6.69,6.69,0,0,1,2.95,3.36A16.54,16.54,0,0,1,50,22.25c1,4-.09,5.72,1.11,8,1.11,2.12,3.7,3.86,5.08,3.28,2.44-1,1-9.31.68-11a13.56,13.56,0,0,0-1.9-4.72c-1.3-2-2.51-2.62-3.86-5.16-.75-1.41-1.21-2.33-.92-3.25C50.7,7.67,53.72,7.15,54.81,7,67.65,4.61,78.57-2.12,81.62,1.89a8.86,8.86,0,0,1,1.12,3.05,20.92,20.92,0,0,1,.62,6.12C82.89,17.43,75.2,19.4,73,28c-.61,2.33-.83,5.19.12,5.63s2.54-2,7.66-5.63c2.07-1.47,2.16-1.31,3-2,1.84-1.58,3.94-4.54,4.5-10.65,0,0,1.44-11.52,5.47-2.88,0,0,8.93,15.26-6.63,19.87,0,0,35.43,8.64,35.14-11.81,0,0-6.91-6.34-23.62,1.44,0,0,7.78-10.08,19.88-10.66,0,0,1.15-6.34-21.6-11.23,0,0,26.2-1.44,39.16,13a.91.91,0,0,0,.41.54c.88.46,2.44-1.43,4.2-2.69a13.42,13.42,0,0,1,6-2.2A15.32,15.32,0,0,1,156.76,11s4.61,1.72,7.49,1.15c0,0-2.59,1.73-13,1.44a5.86,5.86,0,0,0-2.73.63,6.08,6.08,0,0,0-2.22,1.95,40.72,40.72,0,0,1-7.44,12.32c-.26.3-1.15,1.31-2.11,2.21-2.11,2-7.18,6-17.18,7.37a65.34,65.34,0,0,1-22.75-1.73s2,6.62-8.64,6.05c0,0-16.71-1.15-28.23,4.61,0,0-8.35,3.74-16.41-6.34,0,0-11.52-10.37-4.32,5.47a7.88,7.88,0,0,0,1.51,2.74,8.76,8.76,0,0,0,4.53,2.73c2.09.52,3.22,0,3.56.55s-.12,1.62-3,4.35a33.11,33.11,0,0,0-5.4,7.85,38.17,38.17,0,0,0-2.09,5.33,77.22,77.22,0,0,0-1.73,7.84c-.28,1.47-.48,2.55.12,3.59a3.4,3.4,0,0,0,2.55,1.67,3.31,3.31,0,0,0,2.39-.92C43.3,80.37,43,77.68,43,77.23c-.29-7.2,7.2-20.45,23.9-25.92,0,0,9.22-2.88,23.62-2.6,0,0-5.76,6.92-.29,10.95,0,0-11.23-.87-13.25.86s19.59,3.75,19.59,3.75S94.1,53,105.41,49.87c0,0-.78,13,2.1,13.53,0,0,8.64.58,10.95,4.32,0,0-4.32-.86-5.76,1.73,0,0-1.73,5.18,7.77,7.2,0,0-13.25.86-23.9-7.49.93,2.84,2.25,8.43,0,14.11-.72,1.81-1.67,4.12-3.9,5.1s-4.58-.21-7.92-1.42l-.18-7s4.61-1,.57-5.56c0,0-14.78-6.92-24-4.23,0,0-13.82,3.07-7.87,14.79,0,0,3.07,8.25,15,17.08,0,0,7.49,6,8.64,2.88,0,0,2.49-1.92-.58-5.18,0,0-11.52-8.83-14.59-14.4,0,0-4.8-6-.19-8.06,0,0,2.3-2.31,12.67.19,0,0,7.78,2.71,10.37,2.49l.18,7S75.12,78.23,74,86.69Z"/><path class="cls-2" d="M97.72,145.39c-.54.59-.92,1.27-1.07,12,0,2.61.36,7.91-1.23,13.2A30,30,0,0,1,93.69,175c-1.75,3.48-3.64,3.92-4.18,4-3.45.57-8.19-4.16-10.37-12.53,0,0-2.37-5.61-2.08-20s2.3-5.19,2.3-5.19,1.87,2.81,6.7-3.38,9.43,1.8,9.43,1.8,2,2.45-8.65,7.92a13.24,13.24,0,0,0-3.27,2.06c.08.17,2.57-.73,13.22-5.44l1.27-.69c.81-.49,1.88-1.31,2-2.41.14-1.72-2.24-2.53-3.16-4.78-.5-1.22-.7-3.2.93-6.38a7.2,7.2,0,0,0,5.69,5,7.65,7.65,0,0,0,6.7-2.52c.63-.78.85-1,.85-1a3.85,3.85,0,0,1,2.31-1.07l1.16-.13,1.58.13a7,7,0,0,0-3.38,2.52s-2.74,2.74-1.23,3.1c0,0,2,1.94,6-.29a15,15,0,0,1-2.58,2.81,16.31,16.31,0,0,1-5.77,3C99.53,144.71,98.91,144.08,97.72,145.39Z"/><path class="cls-3" d="M119.13,129.07s23.81-7.11,27.45-12.87c0,0,5.57-10.17-9-10,0,0,13.82-8.07,22.27-1.15,0,0,9.6-7.88,19.59-3.84,0,0-7.68,1.15-9.8,6,0,0-2.68,2.69,3.46,2.49s5.38,8.45,5.38,8.45-9.8-8.25-21.12-.77S139.93,126.92,119.13,129.07Z"/><path class="cls-4" d="M153.3,86.83S189.4,72.23,194,64.55c0,0-18.82,9.6-10.37-2.68,0,0-5-1-9.22,4.6,0,0-5.37,3.27-13.63-7.87,0,0-5.95,13.25,5,17.28C165.78,75.88,170.78,77.23,153.3,86.83Z"/><path class="cls-5" d="M136.56,175s10.06-6.38,11-9.48c0,0,1.25-5.35-5.46-3.33,0,0,5.33-5.5,10.13-3.48,0,0,3.4-4.85,8.54-4.34,0,0-3.4,1.54-3.75,4,0,0-.89,1.58,1.92.68s3.59,3.12,3.59,3.12a8.72,8.72,0,0,0-9.85,2.45C148.41,169.55,145.88,171.3,136.56,175Z"/><path class="cls-6" d="M100.87,97.31s11.9-.51,14.26-2.74c0,0,3.75-4-3.08-5.61,0,0,7.36-2.11,10.52,2,0,0,5.36-2.5,9.56.5,0,0-3.71-.36-5.24,1.6,0,0-1.56.92,1.33,1.54s1.55,4.5,1.55,4.5A8.72,8.72,0,0,0,120,96.34C113.88,98.47,110.81,98.72,100.87,97.31Z"/><path class="cls-7" d="M106.8,178.15s21.86-8.83,24.65-13.49c0,0-11.39,5.82-6.28-1.62,0,0-3-.58-5.58,2.79,0,0-3.25,2-8.25-4.77,0,0-3.61,8,3,10.46C114.36,171.52,117.38,172.34,106.8,178.15Z"/></g></g></svg>