<svg xmlns="http://www.w3.org/2000/svg" xmlns:xlink="http://www.w3.org/1999/xlink" viewBox="0 0 410.66 273.02"><defs><style>.cls-1{fill:url(#linear-gradient);}.cls-2{fill:url(#linear-gradient-2);}.cls-3{fill:url(#linear-gradient-3);}.cls-4{fill:url(#linear-gradient-4);}.cls-5{fill:url(#linear-gradient-5);}.cls-6{fill:url(#linear-gradient-6);}.cls-7{fill:url(#linear-gradient-7);}.cls-8{font-size:37px;fill:#3e3e3f;}.cls-17,.cls-8{font-family:MyriadPro-Bold, Myriad Pro;font-weight:700;}.cls-9{letter-spacing:-0.01em;}.cls-10{letter-spacing:0em;}.cls-11{letter-spacing:0em;}.cls-12{letter-spacing:-0.01em;}.cls-13{letter-spacing:0em;}.cls-14{letter-spacing:-0.02em;}.cls-15{letter-spacing:-0.01em;}.cls-16{letter-spacing:0em;}.cls-17{font-size:33px;fill:#3b3b3c;}.cls-18{letter-spacing:-0.02em;}.cls-19{letter-spacing:0em;}.cls-20{letter-spacing:0.02em;}</style><linearGradient id="linear-gradient" x1="115.69" y1="92.87" x2="279.94" y2="92.87" gradientUnits="userSpaceOnUse"><stop offset="0" stop-color="#27859c"/><stop offset="0.54" stop-color="#0e5466" stop-opacity="0.94"/><stop offset="0.82" stop-color="#003947" stop-opacity="0.9"/></linearGradient><linearGradient id="linear-gradient-2" x1="192.72" y1="154.47" x2="233.21" y2="154.47" xlink:href="#linear-gradient"/><linearGradient id="linear-gradient-3" x1="234.82" y1="114.57" x2="295.1" y2="114.57" xlink:href="#linear-gradient"/><linearGradient id="linear-gradient-4" x1="268.99" y1="72.71" x2="309.7" y2="72.71" xlink:href="#linear-gradient"/><linearGradient id="linear-gradient-5" x1="252.24" y1="164.7" x2="278.2" y2="164.7" xlink:href="#linear-gradient"/><linearGradient id="linear-gradient-6" x1="216.56" y1="93.77" x2="247.82" y2="93.77" xlink:href="#linear-gradient"/><linearGradient id="linear-gradient-7" x1="222.49" y1="169.61" x2="247.14" y2="169.61" xlink:href="#linear-gradient"/></defs><g id="Layer_2" data-name="Layer 2"><g id="Layer_2-2" data-name="Layer 2"><path class="cls-1" d="M189.65,86.69c-.38,2.83,3.72,4.75,6,6,3.2,1.67,4,1.1,6.78,2.72a18.09,18.09,0,0,1,5.27,4.79,20.29,20.29,0,0,1,4,10.62s.84,8.49-8.95,18c0,0-12.38,13.53-9.79,1.73s19.7-22.33,10.2-20.89c0,0-5.59-.14-10.49,7.06,0,0-1.73,7.2-8.06-2.88,0,0-5.47-6.91-11.23-8.06,0,0-11.81,0,.28,7.2a26.85,26.85,0,0,1,6.63,6,27.92,27.92,0,0,1,5.76,14.88,134.72,134.72,0,0,1,.86,19.15,55,55,0,0,0,.87,12.17,22.93,22.93,0,0,0,2.51,7.55,35,35,0,0,0,3.68,5.05c3.23,3.94,4.47,4.58,4.27,5.53-.23,1.12-2.36,2.25-10.25,2.46-1.91-.33-3.94-.76-6.05-1.3a78.91,78.91,0,0,1-10.58-3.52s12.25-21.32,11.67-30.24c0,0,5.9-25.06-11.38-30.82,0,0-11.81-7.78-31.11,6.05,0,0-7.48,7.49-3.45,9.5,0,0,3.45,3.17,7.49-3.17,0,0,6.91-7.77,16.7-8.35,0,0,11.81-1.33,15,10,0,0,5.18,12.76-2,24.28-6.63,12.32-7.25,16.35-6.05,17.28s4.83-1.12,5.11-1.29a9.52,9.52,0,0,0,3.79-4.31l-5.73,11.08c-17.18-6.43-20.55-11.53-20.52-15,0-4,6-9,10.58-17.5,1.44-2.66,5.12-6.76,1.66-10.72,0,0-4.25-4.25-6.12,4.46s-15.62,10.58-15.62,10.58-8.79,0-12.75-10.87.1-17.88.1-17.88,3.43-6.89,13.15-10.92c0,0,7.92-3.38,13.82-1.73,0,0,4.76,1.3,5-2.88,0,0,1.15-2.66-4.25-3.31,0,0-8.56-1.8-18.64,3.17,0,0-8.07,2.88-13.9,13.18,0,0-2.59,7-4.1-1s1.51-14.11,5.54-19.23c0,0,10.8-12.67,23.11-6,1.72,1.17,3.21,2,4.29,2.63a16.66,16.66,0,0,0,5.65,2.26c1.5.24,2.66.41,3.58-.35a3.19,3.19,0,0,0,.88-3.46,3.67,3.67,0,0,0-1.74-1.78c-3.89-2.31-5.83-3.47-6-3.55-5.55-2.2-12.17-2-13.54-2,0,0-6.26-.14,1.22-5.9s1.16-23.83-.72-27.94c0,0-5.54-5.25-5.4,3.39s4.68,18.93-.72,23.4-10.65,5.83-14.25,13.32-5.33-8.5-5.33-8.5-3.67-12,7.27-31.46c0,0,3.1-9.79,12-8.86q8.68.69,9.1-.85.27-1-3-3c-1.33-.54-4.26-1.94-5.19-4.76-1.15-3.47,1.46-6.91,4-10.22,4.65-6,14.78-15.42,20.82-12.29a6.69,6.69,0,0,1,2.95,3.36,16.54,16.54,0,0,1,1.33,3.49c1,4-.09,5.72,1.11,8,1.1,2.12,3.7,3.86,5.08,3.28,2.44-1,1-9.31.68-11a13.35,13.35,0,0,0-1.91-4.72c-1.29-2-2.51-2.62-3.85-5.16-.75-1.41-1.22-2.33-.92-3.25.56-1.79,3.57-2.31,4.67-2.51,12.84-2.34,23.76-9.07,26.81-5.06a9.31,9.31,0,0,1,1.12,3.05,21.11,21.11,0,0,1,.61,6.12c-.46,6.37-8.15,8.34-10.4,16.92-.61,2.33-.83,5.19.12,5.63s2.54-2,7.66-5.63c2.07-1.47,2.15-1.31,3-2,1.85-1.58,3.95-4.54,4.5-10.65,0,0,1.44-11.52,5.48-2.88,0,0,8.92,15.26-6.63,19.87,0,0,35.43,8.64,35.14-11.81,0,0-6.91-6.34-23.62,1.44,0,0,7.78-10.08,19.87-10.66,0,0,1.16-6.34-21.6-11.23,0,0,26.21-1.44,39.17,13a.91.91,0,0,0,.41.54c.88.46,2.44-1.43,4.2-2.69a13.38,13.38,0,0,1,6-2.2A15.32,15.32,0,0,1,272.45,11s4.61,1.72,7.49,1.15c0,0-2.6,1.73-13,1.44a5.92,5.92,0,0,0-2.74.63A6.12,6.12,0,0,0,262,16.16a40.72,40.72,0,0,1-7.44,12.32c-.26.3-1.16,1.31-2.11,2.21-2.12,2-7.18,6-17.18,7.37a65.4,65.4,0,0,1-22.76-1.73s2,6.62-8.64,6.05c0,0-16.7-1.15-28.22,4.61,0,0-8.35,3.74-16.42-6.34,0,0-11.52-10.37-4.32,5.47a8.11,8.11,0,0,0,1.52,2.74A8.76,8.76,0,0,0,161,51.59c2.09.52,3.22,0,3.55.55s-.11,1.62-3,4.35a33.11,33.11,0,0,0-5.4,7.85,37,37,0,0,0-2.09,5.33,77.22,77.22,0,0,0-1.73,7.84c-.28,1.47-.48,2.55.11,3.59A3.45,3.45,0,0,0,155,82.77a3.31,3.31,0,0,0,2.39-.92c1.58-1.48,1.3-4.17,1.28-4.62-.29-7.2,7.2-20.45,23.9-25.92,0,0,9.22-2.88,23.62-2.6,0,0-5.76,6.92-.29,10.95,0,0-11.23-.87-13.25.86s19.59,3.75,19.59,3.75S209.79,53,221.1,49.87c0,0-.78,13,2.1,13.53,0,0,8.64.58,10.94,4.32,0,0-4.32-.86-5.76,1.73,0,0-1.72,5.18,7.78,7.2,0,0-13.25.86-23.9-7.49.92,2.84,2.25,8.43,0,14.11-.72,1.81-1.68,4.12-3.91,5.1s-4.57-.21-7.91-1.42l-.18-7s4.6-1,.57-5.56c0,0-14.78-6.92-24-4.23,0,0-13.82,3.07-7.87,14.79,0,0,3.07,8.25,15,17.08,0,0,7.48,6,8.64,2.88,0,0,2.49-1.92-.58-5.18,0,0-11.52-8.83-14.59-14.4,0,0-4.8-6-.19-8.06,0,0,2.3-2.31,12.67.19,0,0,7.77,2.71,10.37,2.49l.18,7S190.81,78.23,189.65,86.69Z"/><path class="cls-2" d="M213.41,145.39c-.55.59-.92,1.27-1.07,12,0,2.61.36,7.91-1.24,13.2a29.07,29.07,0,0,1-1.72,4.41c-1.75,3.48-3.64,3.92-4.18,4-3.45.57-8.19-4.16-10.37-12.53,0,0-2.37-5.61-2.09-20s2.31-5.19,2.31-5.19,1.87,2.81,6.69-3.38,9.44,1.8,9.44,1.8,2,2.45-8.65,7.92a13.24,13.24,0,0,0-3.27,2.06c.08.17,2.57-.73,13.22-5.44l1.26-.69c.82-.49,1.89-1.31,2-2.41.14-1.72-2.25-2.53-3.16-4.78-.5-1.22-.7-3.2.93-6.38a7.2,7.2,0,0,0,5.69,5,7.61,7.61,0,0,0,6.69-2.52c.64-.78.86-1,.86-1a3.82,3.82,0,0,1,2.31-1.07l1.15-.13,1.59.13a7.08,7.08,0,0,0-3.39,2.52s-2.73,2.74-1.22,3.1c0,0,1.94,1.94,6.05-.29a14.74,14.74,0,0,1-2.59,2.81,16.28,16.28,0,0,1-5.76,3C215.22,144.71,214.6,144.08,213.41,145.39Z"/><path class="cls-3" d="M234.82,129.07s23.8-7.11,27.45-12.87c0,0,5.57-10.17-9-10,0,0,13.82-8.07,22.27-1.15,0,0,9.6-7.88,19.58-3.84,0,0-7.68,1.15-9.79,6,0,0-2.69,2.69,3.46,2.49s5.37,8.45,5.37,8.45-9.79-8.25-21.12-.77S255.62,126.92,234.82,129.07Z"/><path class="cls-4" d="M269,86.83s36.1-14.6,40.71-22.28c0,0-18.82,9.6-10.37-2.68,0,0-5-1-9.22,4.6,0,0-5.37,3.27-13.63-7.87,0,0-6,13.25,5,17.28C281.47,75.88,286.46,77.23,269,86.83Z"/><path class="cls-5" d="M252.24,175s10.07-6.38,11-9.48c0,0,1.24-5.35-5.47-3.33,0,0,5.33-5.5,10.13-3.48,0,0,3.41-4.85,8.54-4.34,0,0-3.39,1.54-3.74,4,0,0-.89,1.58,1.92.68s3.58,3.12,3.58,3.12a8.72,8.72,0,0,0-9.85,2.45C264.1,169.55,261.57,171.3,252.24,175Z"/><path class="cls-6" d="M216.56,97.31s11.9-.51,14.26-2.74c0,0,3.74-4-3.08-5.61,0,0,7.36-2.11,10.51,2,0,0,5.37-2.5,9.57.5,0,0-3.71-.36-5.24,1.6,0,0-1.56.92,1.33,1.54s1.55,4.5,1.55,4.5a8.72,8.72,0,0,0-9.76-2.79C229.57,98.47,226.5,98.72,216.56,97.31Z"/><path class="cls-7" d="M222.49,178.15s21.86-8.83,24.65-13.49c0,0-11.39,5.82-6.28-1.62,0,0-3-.58-5.58,2.79,0,0-3.25,2-8.25-4.77,0,0-3.61,8,3,10.46C230.05,171.52,233.07,172.34,222.49,178.15Z"/><text class="cls-8" transform="translate(0 232.43) scale(1.05 1)"><tspan class="cls-9">A</tspan><tspan x="23.72" y="0">u</tspan><tspan class="cls-10" x="45.29" y="0">t</tspan><tspan class="cls-11" x="58.68" y="0">om</tspan><tspan class="cls-12" x="111.85" y="0">a</tspan><tspan class="cls-10" x="131.09" y="0">t</tspan><tspan class="cls-13" x="144.48" y="0">ed </tspan><tspan class="cls-14" x="193.55" y="0">A</tspan><tspan x="217.08" y="0">t</tspan><tspan class="cls-10" x="230.66" y="0">t</tspan><tspan x="244.05" y="0">endan</tspan><tspan class="cls-15" x="348.54" y="0">c</tspan><tspan class="cls-16" x="364.82" y="0">e </tspan></text><text class="cls-17" transform="translate(143.91 264.77) scale(1.25 1)"><tspan class="cls-18">P</tspan><tspan class="cls-19" x="18.38" y="0">o</tspan><tspan class="cls-20" x="37.42" y="0">r</tspan><tspan x="50.65" y="0">tal</tspan></text></g></g></svg>