<svg xmlns="http://www.w3.org/2000/svg" viewBox="0 0 326.73 343.46"><defs><style>.cls-1{isolation:isolate;}.cls-2{fill:#3f90a8;}.cls-3{fill:#f4f1e5;}.cls-4,.cls-5{fill:#f8dcc2;}.cls-10,.cls-13,.cls-14,.cls-15,.cls-16,.cls-17,.cls-18,.cls-19,.cls-21,.cls-23,.cls-5,.cls-9{mix-blend-mode:multiply;}.cls-10,.cls-14,.cls-6{fill:#ec925d;}.cls-7{fill:#a64c49;}.cls-8,.cls-9{fill:#3b5765;}.cls-9{opacity:0.28;}.cls-10{opacity:0.4;}.cls-11,.cls-13,.cls-15,.cls-17,.cls-18,.cls-19{fill:#f8c650;}.cls-12,.cls-16{fill:#fcc7a9;}.cls-14{opacity:0.43;}.cls-15{opacity:0.51;}.cls-16{opacity:0.39;}.cls-17{opacity:0.55;}.cls-18{opacity:0.69;}.cls-19{opacity:0.14;}.cls-20,.cls-21,.cls-22,.cls-23{fill:#abe3ef;}.cls-22{mix-blend-mode:screen;opacity:0.54;}.cls-23{opacity:0.45;}</style></defs><g class="cls-1"><g id="Layer_2" data-name="Layer 2"><g id="Layer_1-2" data-name="Layer 1"><path class="cls-2" d="M15.61,290.91s-18.76,15-1.22,33.73L99,299.72Z"/><polygon class="cls-2" points="303.68 297.79 154.29 343.46 14.39 324.64 23.59 321.71 165.19 276.31 165.29 276.31 231.85 290.23 296.84 297.07 303.68 297.79"/><path class="cls-3" d="M302.13,270.85l-7.66,3.8,7.61-2.72-.05,2.21-28.79,12.29L302,275.22l-.41,11.26-11.06,4.83,11-2.93-.26,7.15-4.42,1.54-142.09,43.1-.36-.05L23.59,321.71l-6.84-1c-3.59-8.85-2.93-18.15,1-27.82l147.41-16.61h.1l130-7.83,6.94-.77Z"/><polygon class="cls-4" points="17.76 292.9 170.93 258.87 302.25 267.73 157.66 311.7 17.76 292.9"/><polygon class="cls-5" points="17.76 292.9 170.93 258.87 302.25 267.73 155.62 311.42 17.76 292.9"/><path class="cls-2" d="M15.61,290.91l142.71-30.33a58.11,58.11,0,0,1,21.55-3.3l124.91,8L155.51,309.71Z"/><polygon class="cls-5" points="303.68 297.79 154.29 343.46 154.39 340.12 155.52 309.73 231.85 290.23 295.3 268.48 302.24 267.71 302.13 270.85 294.47 274.65 302.08 271.93 302.03 274.14 273.24 286.43 301.98 275.22 301.57 286.48 290.51 291.31 301.52 288.38 301.26 295.53 296.84 297.07 303.68 297.79"/><path class="cls-6" d="M8.71,251.39s-18.76,15-1.21,33.73L92.1,260.2Z"/><polygon class="cls-6" points="296.78 258.27 147.39 303.94 7.49 285.12 16.69 282.19 158.29 236.79 158.39 236.79 224.95 250.71 289.94 257.55 296.78 258.27"/><path class="cls-3" d="M295.24,231.33l-7.67,3.8,7.61-2.72-.05,2.21L266.34,246.9l28.74-11.2L294.67,247l-11.05,4.83,11-2.93-.26,7.15-4.42,1.54-142.09,43.1-.36,0L16.69,282.19l-6.83-1c-3.6-8.85-2.94-18.15,1-27.82l147.41-16.61h.1l130-7.83,6.94-.77Z"/><polygon class="cls-4" points="10.86 253.38 164.03 219.34 295.35 228.21 150.76 272.18 10.86 253.38"/><polygon class="cls-5" points="10.86 253.38 164.03 219.34 295.35 228.21 148.72 271.9 10.86 253.38"/><path class="cls-6" d="M8.71,251.39l142.71-30.33a58.13,58.13,0,0,1,21.56-3.3l124.9,8L148.61,270.19Z"/><polygon class="cls-5" points="296.78 258.27 147.39 303.94 147.49 300.6 148.62 270.21 224.95 250.71 288.4 228.96 295.34 228.19 295.24 231.33 287.57 235.13 295.18 232.41 295.13 234.62 266.34 246.91 295.08 235.7 294.67 246.96 283.62 251.79 294.62 248.86 294.36 256 289.94 257.55 296.78 258.27"/><path class="cls-7" d="M30.14,218.75s-18.76,15-1.22,33.73l84.61-24.92Z"/><polygon class="cls-7" points="318.21 225.63 168.82 271.3 28.92 252.48 38.12 249.55 179.72 204.15 179.82 204.15 246.38 218.07 311.37 224.91 318.21 225.63"/><path class="cls-3" d="M316.66,198.69l-7.66,3.8,7.61-2.72-.05,2.21-28.79,12.28,28.74-11.2-.41,11.26L305,219.15l11-2.93-.26,7.15-4.42,1.54L169.28,268l-.36-.05L38.12,249.55l-6.84-1c-3.59-8.85-2.93-18.15,1-27.82l147.41-16.61h.1l130-7.83,6.94-.77Z"/><polygon class="cls-4" points="32.29 220.74 185.46 186.7 316.78 195.57 172.19 239.54 32.29 220.74"/><polygon class="cls-5" points="32.29 220.74 185.46 186.7 316.78 195.57 170.15 239.26 32.29 220.74"/><path class="cls-7" d="M30.14,218.75l142.71-30.33a58.11,58.11,0,0,1,21.55-3.3l124.91,7.95L170,237.55Z"/><polygon class="cls-5" points="318.21 225.63 168.82 271.3 168.92 267.96 170.05 237.57 246.38 218.07 309.83 196.32 316.77 195.55 316.66 198.69 309 202.49 316.61 199.77 316.56 201.98 287.77 214.26 316.51 203.06 316.1 214.32 305.05 219.15 316.05 216.22 315.79 223.37 311.37 224.91 318.21 225.63"/><path class="cls-2" d="M321.14,211.45,310,209l-78.58-17.61,5.73-.87,8.44-1.33,10.34-1.66,53-8.33,6.95-1.08S336.29,190.74,321.14,211.45Z"/><polygon class="cls-2" points="321.13 211.45 182.93 233.16 28.36 204.58 96.13 189.86 101.79 188.48 132.86 175.48 164.02 167.83 196.73 177.51 241.47 187.91 245.16 189.02 245.58 189.16 246.1 189.29 311.83 208.69 321.13 211.45"/><path class="cls-4" d="M39.77,196.37l-11.55-3.49-1.75-11.12,29.88,7.67-30-8.74L26,178.48l7.9,1.84-8.06-2.9,290.1.68c5.5,20.64,5,20.55,2.43,29.72l-136,21.45L29.63,201.84l-1.12-7.09Z"/><polygon class="cls-4" points="314 180.33 158.36 158.38 25.3 174.35 175.79 202.05 314 180.33"/><polygon class="cls-5" points="316.19 179.22 315.89 178.1 158.36 158.38 25.3 174.35 178 201.75 316.19 179.22"/><path class="cls-2" d="M315.89,178.1l-144.8-19.53a58.36,58.36,0,0,0-21.8-.7L22.72,172.44l155,27.38Z"/><path class="cls-5" d="M321.14,211.45,182.93,233.16l-.6-3.89L178,201.75l-.33-1.95,63.8-11.89,67-8.83,7.42-1S336.29,190.74,321.14,211.45Z"/><path class="cls-8" d="M290,260.05c-3,2.11-4.73,4-12.37,1.87-4.16-1.15-8.84-4.07-11.62-5.77a17.06,17.06,0,0,0-5.06-2.06c-.53-.13-1-.24-1.48-.38a1.09,1.09,0,0,1-.21-.09c-6.18-1.69-6.47-3.75-6.69-4.55s1-16.29,1-16.29l17.12,3.72a38.27,38.27,0,0,0,5.6,7.22,134.52,134.52,0,0,0,12.89,10.65C292.11,256.52,291.68,258.91,290,260.05Z"/><path class="cls-9" d="M272.5,239.14s2.07,3.68-12.75,4.74c-9.19.66-2.3,8.78-.45,9.74-6.18-1.69-6.47-3.75-6.69-4.55s1-16.29,1-16.29l17.12,3.72A18.46,18.46,0,0,0,272.5,239.14Z"/><path class="cls-6" d="M274.77,176.84c-.27,6.78-4.61,8.85-7.6,14a51,51,0,0,0-8.95-1.27c-3.56-.3-7.77-.46-12.31-.59-23.27-.75-55.72-.39-60.52-6.22-1.3-1.56-7-24.12-7.93-25.75a23,23,0,0,1-3.05-10.34c-.14-6,2.67-11,8.4-13,3.25-1.18,7.48-1.33,12.57-.06,2.05.78,6.06-1.8,8.21-1.15,1.85.57,3.68,1.17,5.51,1.8,4.48,1.48,8.88,3.08,13.21,4.74a383.22,383.22,0,0,1,44.57,20.55C273.45,163.92,275,170.23,274.77,176.84Z"/><path class="cls-6" d="M274.66,172.12c.88,22.36-3.38,58.84-2.37,65.57-2.39,4.05-19.12,5.08-19.6,1.81-.34-2.67-.33-2.76-.38-3.15-1.78-11.57-8.41-48.2-9.37-52a.65.65,0,0,1,.13-.38c.77-1.54,6.1-5.89,11.89-10.29C262.56,167.94,274.6,170.37,274.66,172.12Z"/><path class="cls-10" d="M259,195.88c-3.7,12.4-6.89,37.89-6,46.29-1.78-11.57-7.71-48.35-8.67-52.13,0-.09,1.46-.86,1.56-1-23.27-.75-55.72-.39-60.52-6.22-1.3-1.56-7-24.12-7.93-25.75a23,23,0,0,1-3.05-10.34l34.69-12.44c4.48,1.48,8.88,3.08,13.21,4.74,0,0,1.77.33-1.22,5.38-1.2,2,2.36,7.19,4.37,8.44,11,6.86,23,14.24,29.5,20.86C259.81,178.61,261.21,188.53,259,195.88Z"/><path class="cls-11" d="M227.29,71.43c-.3,1.71-6.22,26.61-8.68,36.9v0c-.61,2.62-1,4.28-1,4.35-5.31-.68-15.37-3.27-19.58-8.53a7.85,7.85,0,0,1-1.76-6.53c.77-4.31,4.24-14.26,5.33-18.32a48.4,48.4,0,0,1,5.82-13.89c2.59-4,5.63-6.61,9-7.53,7.95-2.18,10,2.25,11.47,6.23C228.65,66.29,227.47,70.47,227.29,71.43Z"/><path class="cls-12" d="M242.42,135.53s4,4.19,6.11,5,6.1-.58,10.3,0,5.37,6.29,6.11,7.63.93,5.5-3.35,5.71-9.11-6.31-9.22-4c1.62,2.85,3,4.53.93,4.59s-5.23-5.92-8.24-6.85-5.31-2-6.07-3.88S242.42,135.53,242.42,135.53Z"/><path class="cls-11" d="M235.5,144.77l-2.9-1.66a.07.07,0,0,1-.08-.05c-7.9-4.47-28.77-16.39-31.06-17.71-2.8-1.61-7.15-7.26-8.51-9.26.32-5.17,2.26-9.27,5.07-11.89,5.36-5,13.87-4.57,20.59,4.18,0,.07,26,27.22,26.95,28S239.34,146.47,235.5,144.77Z"/><path class="cls-11" d="M195.69,49.43l-2.48-3.51a7.5,7.5,0,0,1,7.37-1Z"/><path class="cls-13" d="M193.21,45.92a7.5,7.5,0,0,1,7.37-1c4.07,1.72-4.89,4.55-4.89,4.55Z"/><path class="cls-8" d="M234,25.68c-7.4,6.33-8.36,17-22.6,17s-11.73,3.53-15.89-5.28c-4.06-8.58-4.29-13.19-4.93-21.57-.32-4.14,4.36-10.35,13.62-13,10.69-6.57,19.75,0,25.24,1.25,8.05,1.8,8.75,6.75,7.75,9.68C237.27,21.34,236.52,21.85,234,25.68Z"/><path class="cls-6" d="M245.64,170.56c.08.75-3.53,9.32-6.85,16.83-.18.43-.37.87-.59,1.31-2.39,5.47-4.5,10.06-4.65,10.07-4.6-.92-9.14-1.86-13.6-2.89-1.49-.3-2.94-.61-4.43-1-17.6-4-34.36-8.85-51-16.13-13.88-6.05-19.2-20.65-17.65-29.9.18-1.09.36-2.11.51-3.08C150,130.67,150.11,131,170,132c3.59.15,12.93,4.3,16.46,5.41,9,2.91,6-1.89,13.48,2.84l1.34.86c3.66,2.27,7,4.41,10.09,6.36,14,8.85,22.68,14.61,29.68,19.7a10.37,10.37,0,0,1,.93.66c1.16.84,2.29,1.69,3.39,2.51A1.14,1.14,0,0,1,245.64,170.56Z"/><path class="cls-8" d="M211,276c-2.31.79-13.9-1.59-18.51-6.8a34,34,0,0,1-2.3-4.06v-.06c-1.81-3.43-4.21-7.92-5.91-9.08-2.73-1.85-5-8.39-4.1-10.33s15-12.91,15-12.91l9.45,10.57s-1.44,3.42-.76,9.46a35.49,35.49,0,0,0,2.08,8.4C211.09,268.47,219.17,273.2,211,276Z"/><path class="cls-9" d="M204.69,243.32s-1.44,3.42-.76,9.46c-1.68.52-4.74.45-9.78-2.58-8.86-5.33-9.16.12-8.85,1.77s3,7.67,4.92,13.1c-1.81-3.43-4.21-7.92-5.91-9.08-2.73-1.85-5-8.39-4.1-10.33s15-12.91,15-12.91Z"/><path class="cls-6" d="M255,193.65c-5.88,19.06-47.21,52-48.9,55a3,3,0,0,1-3.13,1.36h-.06c-5.92-.6-16.54-10.57-13.74-14.55,0,0,6.82-10.77,15.63-24.31a1.48,1.48,0,0,0,.08-.13q2.3-3.54,4.76-7.25c1.92-2.93,3.88-5.94,5.88-8.91.2-.29.4-.61.63-.93,1.87-2.85,3.76-5.69,5.64-8.45.52-1.89,10.63-21.25,11.13-23.35,3,1.67,5.72,3.31,8.1,4.94a10.37,10.37,0,0,1,.93.66c1.16.84,2.29,1.69,3.39,2.51a1.14,1.14,0,0,1,.3.27C256.51,179.35,257.88,187,255,193.65Z"/><path class="cls-14" d="M182.92,162.47c23.49-8,30-11.8,29.61-14.3-3.09-1.95-7.62-4.84-11.28-7.11l-16,0L148,145.33l-.54.47c-.15,1-.33,2-.51,3.08-1.55,9.25,3.77,23.85,17.65,29.9,16.61,7.28,33.37,12.12,51,16.13-.39.46-26.35,40.6-26.35,40.6-2.8,4,7.82,14,13.74,14.55-2.91-1.95-10.52-10.78-6.77-14.45,14.15-13.82,21.26-23.44,21.26-23.44,7.2-6.41,1.49-16.72,13.18-21.28C224.53,192.35,164.69,168.67,182.92,162.47Z"/><path class="cls-15" d="M232.52,143.06c-7.9-4.47-28.77-16.39-31.06-17.71-2.8-1.61-7.15-7.26-8.51-9.26.32-5.17,2.26-9.27,5.07-11.89a7.85,7.85,0,0,1-1.76-6.53c.77-4.31,4.24-14.26,5.33-18.32a48.4,48.4,0,0,1,5.82-13.89L220,67.54s-.37,36.22-1.39,40.79a35.76,35.76,0,0,1,2.22,8.11C221.31,120.14,224.35,137.93,232.52,143.06Z"/><path class="cls-11" d="M227.21,65.26c0,.32,0,.64,0,.93v.22c0,20.06-15.56,52.44-16.12,58.63,0,0-2.08,9.16,3.58,12.8,0,0,4.66,4.1-11.95,12.53-.16-.09-.38-.19-.59-.29a12.37,12.37,0,0,1-3.39-2.32,3.57,3.57,0,0,1-.8-3.84,31.24,31.24,0,0,0-1.6,4.52c-.11.42-.19.81-.27,1.15a12.69,12.69,0,0,0-.24,3.52c-1.25,3.5-11.34,5-19.56,5.58l-.37,0a67.06,67.06,0,0,1-21.45-1.88c-6.38-1.64-13.58-4-13.18-6.46,2.37-13.94,9.26-25.31,11.68-54.68.16-2.2,10.22-28.06,17.29-36.39a12.26,12.26,0,0,1,2.16-2c.46-.29.81-.53,1.1-.75a46.27,46.27,0,0,1,6.19-3.89c.72-.39,1.55-.81,2.53-1.3,18-8.78,35.49-7,44,10a8.49,8.49,0,0,1,.69,2A9.92,9.92,0,0,1,227.21,65.26Z"/><path class="cls-12" d="M221.91,49.35l-7.07,6.5c0,1-.08,2.2-.15,3.44-.31,5.29-1.07,11.67-3.09,12.18-.46-6-1.73-10.23-3.73-13.42A19.81,19.81,0,0,0,203.33,53,65.06,65.06,0,0,0,194,47.06c.2-.38,9-12.24,9-12.24C205.45,31.35,223.72,46,221.91,49.35Z"/><path class="cls-16" d="M221.86,51.2l-7.07,5.95c0,.94-.46,14-3.24,14.32,1.18-.54,1.95-4.44,2.26-6.73s.2-4.24-3.22-4.25a8.91,8.91,0,0,1-2.77-1.32,18.88,18.88,0,0,0-4.54-4.64c-14.74-1.8-5.57-10.23-5.57-10.23Z"/><path class="cls-11" d="M208.42,58.91a6.59,6.59,0,0,0,.43,3.33s-6.21-.12-7.8-2.26,6.38-1.52,7.31-1.18A.09.09,0,0,1,208.42,58.91Z"/><path class="cls-15" d="M184,107.67c4.7-10.69.48-22.87,1.52-33.53,1.07-11-.09-16.45-2.19-19.17-1.77-1.93,4-5.84,5.92-4.94-3.73,1-2.38,4.07-1.43,4.84,3.8,2.87,5.84,13.76,5.84,13.76s11.33-7,14.28-7c-4.46-.79-17.68-13.55-17.68-13.55-4.45.83-15.83,7.41-15.53,7.35-.3.28-1.91,1.53-2.37,1.82a12.26,12.26,0,0,0-2.16,2c-7.07,8.33-17.13,34.19-17.29,36.39-2.42,29.37-9.31,40.74-11.68,54.68-.4,2.47,6.8,4.82,13.18,6.46a67.06,67.06,0,0,0,21.45,1.88c-8.19-1.63-42-6.24-20.57-22.28,2.72-2,28.92,11.6,40.9,12.06a.19.19,0,0,1,.11-.05c.91-.39,4.05.81,5.79,1.64.21.1.43.2.59.29,6.05-4.28,4.7-9.7,4.72-12C207.46,134.41,179.11,118.8,184,107.67Z"/><path class="cls-13" d="M196.89,59.53c3.63.13,11.29-1,11.52-.69a.22.22,0,0,1,0,.08,6.42,6.42,0,0,0,.43,3.32C204.85,59,197.34,61.49,196.89,59.53Z"/><path class="cls-11" d="M208.36,58.8c-.6-.22-2,.4-3.63,1.42A80,80,0,0,0,198.1,65c-2.48,2-4.43,3.62-4.43,3.62s.14-11.32-4.25-14.51,1.48-6.38,2.22-7a11.24,11.24,0,0,1,2-1.49h0s2.16-1.32,3.58-1.19-1,.23-1.7,2.71C196.08,52.49,206.67,57.9,208.36,58.8Z"/><path class="cls-17" d="M214.63,61.67c1.3-1.16,3.49,5.21,5.44,6.46.75-3.5,1.59-9.1,1.79-10.71C218.51,55.66,215.34,59,214.63,61.67Z"/><path class="cls-13" d="M214.63,61.87s.51-2.65,2.52-3.61c1.81-.85-1.54,0-2.24.17a.16.16,0,0,0-.13.16Z"/><path class="cls-11" d="M214.84,58.46s1.12-.54,2.57,3.78,2.6,5.3,2.6,5.3.29-7.67,1.26-8.7-1-4.74-1-4.74Z"/><path class="cls-12" d="M232.6,29.52a7.41,7.41,0,0,0-.63,3.54c.29,4.11-1.33,8.11-4,12.72-7.32,12.58-7.88,10.88-14.38,9.4a20.6,20.6,0,0,1-10.46-6c-3.9-4.15-7.33-10-10.21-18.38a12.32,12.32,0,0,1,.64-9.58c7.45-14.58,21.47-8.6,34-5.83C236.93,17.47,234.68,25,232.6,29.52Z"/><path class="cls-8" d="M234,25.68s-10.11-4.72-8.28-8.84c.61-1.35-2.18-2.06-3.66-2.12-8.74-.36-14.93,3.57-16.73,8.76a9.69,9.69,0,0,0-.53,3.31c.12,8.39-5.31,4.34-6.65,7.51-.73,1.71-2,2.09-2.17,4.11-3-4.5-4.43-13.49-5.65-19.74.13-6.19,2.71-10.77,10.09-14.29,12.34-5.91,22.92-1.13,28.37,4.42v0C241.2,11.8,243.75,20,234,25.68Z"/><path class="cls-8" d="M198.15,34.29c-.73,1.73-.16,5.52-.39,7.54-5.64-8.59-12.82-30,2.66-37.46Z"/><path class="cls-12" d="M201.14,32.88c-1.52,2.75.72,6.42-1.12,7.11s-4.32-1.37-5.54-4.6-2.21-5.85,1.12-7.11C199.85,26.68,202.81,29.85,201.14,32.88Z"/><path class="cls-11" d="M172.34,110.55l9.24-26.24c9.45-19.3,3.59-27.59,2.6-28.7-1.25-1.4-4.74-1.73-6.33-1.34-7.4,1.84-16.28,11.25-25.2,36.13-.14.39-6.85,21.15-7,21.8C145.54,112.49,163.51,109,172.34,110.55Z"/><path class="cls-18" d="M211.58,72.84c.18,12.12-1.78,24.53-7.25,35.45a71.37,71.37,0,0,0-4.59,17.52c-.9,6-1.5,12-1.8,18.11h-.06a113.16,113.16,0,0,1,1.24-18.2c.94-6,2.23-12,4.89-17.57a52.9,52.9,0,0,0,5.59-17.22,148.14,148.14,0,0,0,1.92-18.09Z"/><path class="cls-19" d="M198.1,64.6c.45-4.09-5.73-13.25-2.54-11.9,1.94,3.8,7.2,6.17,9.17,7.52A80,80,0,0,0,198.1,65,1.12,1.12,0,0,1,198.1,64.6Z"/><path class="cls-8" d="M236.57,144.28a2.91,2.91,0,0,0-1.89,0l-38.59,14.15c-.23-.19-.65-.53-.73-.41a3.16,3.16,0,0,0-.22,1.17h0v0h0a.59.59,0,0,0,.38.52l38.87,14.42a1.59,1.59,0,0,0,1.21,0l40.11-17.85Z"/><path class="cls-20" d="M235.77,173.27l40.79-17.64-39.83-12.27a2.92,2.92,0,0,0-1.89,0L195.7,157.76a.6.6,0,0,0,0,1.12l38.86,14.42A1.58,1.58,0,0,0,235.77,173.27Z"/><path class="cls-8" d="M293.1,113.86c-1-1.16-1.31-1-1.83-.87l-41,13.56a3,3,0,0,0-1.89,1.91l-14.09,44a.83.83,0,0,0,1.12,1l41.2-18.29a3,3,0,0,0,1.59-1.71l14-39.18A1.91,1.91,0,0,0,293.1,113.86Z"/><path class="cls-21" d="M235.77,173.27l40.79-17.64-39.83-12.27a2.92,2.92,0,0,0-1.89,0L195.7,157.76a.6.6,0,0,0,0,1.12l38.86,14.42A1.58,1.58,0,0,0,235.77,173.27Z"/><path class="cls-21" d="M237.13,171.83l36.91-16-25-6.8a2.7,2.7,0,0,0-1.71,0l-35.42,13a.55.55,0,0,0,0,1L236,171.86A1.47,1.47,0,0,0,237.13,171.83Z"/><path class="cls-21" d="M224.15,156.2l11.55-4a.23.23,0,0,0,0-.44L227.92,149h-.56l-11.15,4.09v.32l7.57,2.74Z"/><path class="cls-20" d="M236.37,174.12l41.2-18.29a3,3,0,0,0,1.59-1.71l14.08-39.45a.82.82,0,0,0-1-1.06l-41,13.56a3,3,0,0,0-1.89,1.91l-14.09,44A.82.82,0,0,0,236.37,174.12Z"/><path class="cls-22" d="M268.2,143.6l0,0c2-2.34,2.64-5,1.49-6s-3.69.13-5.67,2.47a10.69,10.69,0,0,0-1.31,2c-2.67.05-4.77,1.05-4.85,2.42s2.32,2.87,5.37,3,5.6-.9,5.69-2.41A1.87,1.87,0,0,0,268.2,143.6Z"/><path class="cls-23" d="M292.21,113.61l-.86.28s0,.1,0,.15-6.19,13-12.07,24.11a48.41,48.41,0,0,1-21.75,21l-21,10.13-1.24,3.88a.82.82,0,0,0,1.12,1l41.2-18.29a2.93,2.93,0,0,0,1.58-1.71l14.09-39.45A.82.82,0,0,0,292.21,113.61Z"/><path class="cls-12" d="M192.34,132.37s12.45,8.37,14.61,8.94a71.57,71.57,0,0,0,9.66,1c2,.1,8,6.53,9,9.72s1,6.68.06,7.83-6.69.61-10.95-1.06-6-6.69-7.47-7.31-22-10.37-22-10.37Z"/><path class="cls-11" d="M172.15,113.15l.64-3.81c-7.91,3.92-20.54-7.25-26.92,2.35a12.83,12.83,0,0,0,0,5,18,18,0,0,0,4.61,8.41,23.09,23.09,0,0,0,5.46,3.48c9,7.47,23.93,14.64,43.61,21.59,3.36,1.4,8.84-10.51,7.86-11.72Z"/><path class="cls-12" d="M216.58,142.79c1.28.27,2.66.5,4,.65a18.18,18.18,0,0,0,1.9.11c.54,0,1.25-.16,1.06,0a1.82,1.82,0,1,1,2.19,2.9,6.19,6.19,0,0,1-3,1c-.82.08-1.59.08-2.35.08-1.52,0-3-.13-4.48-.3a2.22,2.22,0,1,1,.51-4.42Z"/></g></g></g></svg>