<svg xmlns="http://www.w3.org/2000/svg" viewBox="0 0 2227.63 1435.07"><defs><style>.cls-1{fill:#82b378;}.cls-2{fill:#eac3a0;}.cls-3{fill:#d39e7a;}.cls-4{fill:#fff;}.cls-5{fill:#ffeede;}.cls-6{fill:#efcbab;}.cls-7{fill:#f9ddbf;}.cls-8{fill:#fcecdb;}.cls-9{fill:#699dee;}.cls-10{fill:#548ee2;}.cls-11{fill:#f4d2b8;}.cls-12{fill:#b5453c;}.cls-13{fill:#568cdb;}.cls-14{fill:#f99746;}.cls-15{fill:#fff0e3;}.cls-16{fill:#ffb27d;}.cls-17{fill:#f3a36c;}.cls-18{fill:#233862;}.cls-19{fill:#adc8fe;}.cls-20{fill:#8eb3ef;}.cls-21{fill:#ed7d2b;}.cls-22{fill:#e8945b;}.cls-23{fill:#d7e6ff;}.cls-24{opacity:0.6;}.cls-25{fill:#a8d29f;}</style></defs><g id="Layer_2" data-name="Layer 2"><g id="_ëîé_1" data-name="‘ëîé_1"><rect class="cls-1" x="494.21" y="16.48" width="1104.75" height="754.53"/><path class="cls-2" d="M1619.21,787.5H474V0H1619.21ZM494.21,771H1599V16.48H494.21Z"/><rect class="cls-3" x="457.29" y="763.63" width="1180.36" height="23.24" rx="11.3"/><rect class="cls-4" x="1338.69" y="748.24" width="48.31" height="15.39" rx="7.48"/><rect class="cls-4" x="1135.51" y="748.24" width="27.98" height="15.39" rx="5.69"/><rect class="cls-4" x="1078.5" y="748.24" width="48.73" height="15.39" rx="7.48"/><rect class="cls-2" x="1766.63" y="142.26" width="181.16" height="179.71" rx="13.25"/><rect class="cls-5" x="1774.48" y="150.04" width="165.46" height="164.14" rx="12.1"/><path class="cls-2" d="M1853.46,166.45a3.75,3.75,0,1,1,3.75,3.83A3.8,3.8,0,0,1,1853.46,166.45Z"/><path class="cls-2" d="M1883.74,171.87a3.71,3.71,0,0,1,5.1-1.49,3.89,3.89,0,0,1,1.46,5.22,3.72,3.72,0,0,1-5.11,1.49A3.88,3.88,0,0,1,1883.74,171.87Z"/><path class="cls-2" d="M1909.68,192.94a3.71,3.71,0,0,1,5.19,1.15,3.89,3.89,0,0,1-1.12,5.3,3.7,3.7,0,0,1-5.19-1.14A3.9,3.9,0,0,1,1909.68,192.94Z"/><path class="cls-2" d="M1922.53,225.56a3.84,3.84,0,1,1-3.75,3.84A3.8,3.8,0,0,1,1922.53,225.56Z"/><path class="cls-2" d="M1916,263.42a3.9,3.9,0,0,1,0,5.42,3.7,3.7,0,0,1-5.31,0,3.88,3.88,0,0,1,0-5.42A3.7,3.7,0,0,1,1916,263.42Z"/><path class="cls-2" d="M1892.4,287.57a3.89,3.89,0,0,1,0,5.43,3.68,3.68,0,0,1-5.3,0,3.89,3.89,0,0,1,0-5.43A3.7,3.7,0,0,1,1892.4,287.57Z"/><path class="cls-2" d="M1853.46,300a3.75,3.75,0,1,1,3.75,3.83A3.8,3.8,0,0,1,1853.46,300Z"/><path class="cls-2" d="M1830.56,171.87a3.71,3.71,0,0,0-5.1-1.49,3.88,3.88,0,0,0-1.46,5.22,3.71,3.71,0,0,0,5.1,1.49A3.88,3.88,0,0,0,1830.56,171.87Z"/><path class="cls-2" d="M1804.62,192.94a3.71,3.71,0,0,0-5.19,1.15,3.89,3.89,0,0,0,1.12,5.3,3.71,3.71,0,0,0,5.19-1.14A3.9,3.9,0,0,0,1804.62,192.94Z"/><path class="cls-2" d="M1791.77,225.56a3.84,3.84,0,1,0,3.75,3.84A3.8,3.8,0,0,0,1791.77,225.56Z"/><path class="cls-2" d="M1798.33,263.42a3.88,3.88,0,0,0,0,5.42,3.7,3.7,0,0,0,5.31,0,3.9,3.9,0,0,0,0-5.42A3.7,3.7,0,0,0,1798.33,263.42Z"/><path class="cls-2" d="M1821.89,287.57a3.91,3.91,0,0,0,0,5.43,3.7,3.7,0,0,0,5.31,0,3.89,3.89,0,0,0,0-5.43A3.71,3.71,0,0,0,1821.89,287.57Z"/><path class="cls-2" d="M1856.2,229.4a3.75,3.75,0,1,1,3.75,3.84A3.8,3.8,0,0,1,1856.2,229.4Z"/><rect class="cls-2" x="1859.44" y="181.46" width="1.02" height="47.94"/><polygon class="cls-2" points="1860.42 230.57 1858.53 228.09 1883.38 208.15 1885.28 210.62 1860.42 230.57"/><path class="cls-3" d="M386.13,1011.59v10.67c0,3.74-1.18,6.79-2.62,6.79H2.63c-1.45,0-2.63-3-2.63-6.79v-10.67c0-3.73,1.18-6.79,2.63-6.79H383.51C385,1004.8,386.13,1007.86,386.13,1011.59Z"/><path class="cls-6" d="M386.13,1011.59v10.67c0,3.74-1.08,6.79-2.41,6.79H81.34c-1.32,0-2.41-3-2.41-6.79v-10.67c0-3.73,1.09-6.79,2.41-6.79H383.72C385.05,1004.8,386.13,1007.86,386.13,1011.59Z"/><rect class="cls-2" x="19.33" y="1029.05" width="270.4" height="402.99"/><rect class="cls-7" x="95.11" y="1029.05" width="270.4" height="402.99"/><path class="cls-2" d="M351,1409.79H109.64V1040.43H351Zm-238.73-2.66H348.38v-364H112.25Z"/><rect class="cls-2" x="110.94" y="1162.62" width="238.73" height="2.66"/><rect class="cls-2" x="110.94" y="1287.19" width="238.73" height="2.67"/><path class="cls-2" d="M254.77,1064.25h-44.3a4,4,0,0,1-3.9-4h0a4,4,0,0,1,3.9-4h44.3a4,4,0,0,1,3.91,4h0A4,4,0,0,1,254.77,1064.25Z"/><path class="cls-2" d="M254.77,1186.07h-44.3a4,4,0,0,1-3.9-4h0a4,4,0,0,1,3.9-4h44.3a4,4,0,0,1,3.91,4h0A4,4,0,0,1,254.77,1186.07Z"/><path class="cls-2" d="M254.77,1313.05h-44.3a4,4,0,0,1-3.9-4h0a4,4,0,0,1,3.9-4h44.3a4,4,0,0,1,3.91,4h0A4,4,0,0,1,254.77,1313.05Z"/><path class="cls-2" d="M1865,1427.44h.46a5,5,0,0,0,4.93-5.15l-7.47-330.86-22-2.63,18.75,333.51A5.39,5.39,0,0,0,1865,1427.44Z"/><path class="cls-2" d="M1993.16,1427.44h.47a5,5,0,0,0,4.92-5.15l-7.47-330.86-22-2.63,18.75,333.51A5.39,5.39,0,0,0,1993.16,1427.44Z"/><path class="cls-2" d="M1639.53,1427.44h-.47a5,5,0,0,1-4.92-5.15l7.47-330.86,22-2.63-18.76,333.51A5.37,5.37,0,0,1,1639.53,1427.44Z"/><path class="cls-6" d="M2007.73,1070.91V844.18c0-39.89-31.63-72.23-70.65-72.23H1777.33c-39,0-70.64,32.34-70.64,72.23v235.39Z"/><path class="cls-2" d="M1699.76,1070.91h308a0,0,0,0,1,0,0v35.79a0,0,0,0,1,0,0H1678.07a0,0,0,0,1,0,0v-14.1A21.69,21.69,0,0,1,1699.76,1070.91Z" transform="translate(3685.79 2177.61) rotate(180)"/><rect class="cls-7" x="1625.42" y="1070.91" width="264.72" height="35.79" rx="16.04" transform="translate(3515.56 2177.61) rotate(180)"/><path class="cls-3" d="M2161.58,1434.36h.62a6.8,6.8,0,0,0,6.51-7.21l-9.87-463.25-29.08-3.67,24.8,467A7.3,7.3,0,0,0,2161.58,1434.36Z"/><path class="cls-3" d="M1452.31,1434.36h-.62a6.8,6.8,0,0,1-6.51-7.21l9.87-463.25,29.08-3.67-24.8,467A7.3,7.3,0,0,1,1452.31,1434.36Z"/><rect class="cls-3" x="1403.71" y="940.05" width="823.92" height="32.37" rx="11.52"/><path class="cls-8" d="M1476.33,893.71h72.26A10.43,10.43,0,0,1,1559,904.14v5a10.67,10.67,0,0,1-10.67,10.67h-72a0,0,0,0,1,0,0v-26.1A0,0,0,0,1,1476.33,893.71Z"/><path class="cls-9" d="M1620.7,904.45v3.92a11.6,11.6,0,0,1-1.51,5.75,11.13,11.13,0,0,1-9.67,5.68H1474.11a1.64,1.64,0,0,1-1.62-1.65v-.59a1.65,1.65,0,0,1,1.62-1.66h82.55a10,10,0,0,0,1.15-1.78,10.7,10.7,0,0,0,1.22-5v-5a10.66,10.66,0,0,0-2.25-6.53h-82.67a1.64,1.64,0,0,1-1.62-1.66v-.58a1.64,1.64,0,0,1,1.62-1.66H1610.2a10.55,10.55,0,0,1,10.1,7.78A11.07,11.07,0,0,1,1620.7,904.45Z"/><path class="cls-10" d="M1620.3,901.49h-61.61a10.6,10.6,0,0,0-1.91-3.88h-82.67a1.64,1.64,0,0,1-1.62-1.66v-.58a1.64,1.64,0,0,1,1.62-1.66H1610.2A10.55,10.55,0,0,1,1620.3,901.49Z"/><polygon class="cls-11" points="1476.33 906.76 1486.35 907.2 1476.33 907.46 1476.33 906.76"/><polygon class="cls-11" points="1476.33 910.85 1500.18 911.29 1476.33 911.56 1476.33 910.85"/><path class="cls-12" d="M1493.56,940.05h76.92v-20.3h-77.54a9.73,9.73,0,0,0-9.62,9.83h0A10.36,10.36,0,0,0,1493.56,940.05Z"/><path class="cls-8" d="M1556.07,919.75h87.32A10.22,10.22,0,0,1,1653.62,930v.08a10,10,0,0,1-10,10h-87.55a0,0,0,0,1,0,0v-20.3A0,0,0,0,1,1556.07,919.75Z" transform="translate(3209.69 1859.8) rotate(-180)"/><path class="cls-12" d="M1550.23,940.05h106.43a1.5,1.5,0,0,0,1.48-1.52h0a1.5,1.5,0,0,0-1.48-1.52H1550.23a1.51,1.51,0,0,0-1.49,1.52h0A1.51,1.51,0,0,0,1550.23,940.05Z"/><path class="cls-12" d="M1550.23,922.79h106.43a1.5,1.5,0,0,0,1.48-1.52h0a1.5,1.5,0,0,0-1.48-1.52H1550.23a1.51,1.51,0,0,0-1.49,1.52h0A1.51,1.51,0,0,0,1550.23,922.79Z"/><polygon class="cls-11" points="1653.62 929.9 1641.79 930.24 1653.62 930.45 1653.62 929.9"/><polygon class="cls-11" points="1653.62 925.23 1625.48 925.57 1653.62 925.77 1653.62 925.23"/><path class="cls-9" d="M1625.77,925.5a4.71,4.71,0,0,1,1.61,2.31,3.43,3.43,0,0,1,.12.8c.07,1.9,0,6.22,0,6.22l3.56-2.16,3.55,2.16V929a4.67,4.67,0,0,0-.87-2.88,1.35,1.35,0,0,0-1-.6Z"/><path class="cls-13" d="M1625.77,925.5a4.71,4.71,0,0,1,1.61,2.31l7.13.08s-.28-2-1.75-2.39Z"/><path class="cls-14" d="M1585.11,874.21h41.55a5.63,5.63,0,0,1,5.63,5.63v7.88a6,6,0,0,1-6,6h-41.18a0,0,0,0,1,0,0v-19.5A0,0,0,0,1,1585.11,874.21Z"/><path class="cls-8" d="M1466.94,874.21h129.34a9.31,9.31,0,0,1,9.31,9.31v.66a9.53,9.53,0,0,1-9.53,9.53H1466.94a0,0,0,0,1,0,0v-19.5A0,0,0,0,1,1466.94,874.21Z"/><rect class="cls-14" x="1460.51" y="890.79" width="155.51" height="2.92" rx="1.41"/><rect class="cls-14" x="1460.51" y="874.21" width="155.51" height="2.92" rx="1.41"/><polygon class="cls-2" points="2132.48 926.83 2127.02 926.83 2127.02 830.68 2182.89 684.92 2083.14 605.88 2086.48 601.47 2189.46 683.06 2132.48 831.73 2132.48 926.83"/><path class="cls-2" d="M2071.86,616h0a5.78,5.78,0,0,1-1.32-7.94l8.31-12a5.49,5.49,0,0,1,7.77-1.35h0a5.78,5.78,0,0,1,1.32,7.94l-8.31,12A5.49,5.49,0,0,1,2071.86,616Z"/><ellipse class="cls-2" cx="2184.93" cy="683.24" rx="7.23" ry="7.39"/><path class="cls-14" d="M2084.23,698.88c-.26.29-.52.59-.79.87l-.05.06c-.26.29-.51.57-.78.84-7.46,6.62-32.19-5.24-56.11-27.12s-38.21-45.68-32.61-54c.24-.3.48-.59.73-.88l.06-.06c.24-.31.5-.61.76-.9a58.64,58.64,0,0,1,84.1-4.8C2104.06,635.31,2106.16,673.8,2084.23,698.88Z"/><path class="cls-7" d="M2083.44,699.75l-.05.06a3.76,3.76,0,0,1-.25.31,5.3,5.3,0,0,1-.53.53c-7.45,6.61-32.19-5.24-56.11-27.12s-38.21-45.68-32.61-54a7.28,7.28,0,0,1,.46-.6,1.85,1.85,0,0,1,.28-.28l0-.07c5.08-4.91,18.87-.53,35,10.14a176.24,176.24,0,0,1,21.33,16.8,189.19,189.19,0,0,1,15.23,15.61C2080.73,678,2088,693.53,2083.44,699.75Z"/><path class="cls-15" d="M2066.22,661.13a24,24,0,0,1-15.55,5.68c-13.56,0-24.55-11.24-24.55-25.1a25.42,25.42,0,0,1,3.54-13,176.24,176.24,0,0,1,21.33,16.8A189.19,189.19,0,0,1,2066.22,661.13Z"/><path class="cls-2" d="M2111.63,924.06h33.89a10.74,10.74,0,0,1,10.74,10.74V940a0,0,0,0,1,0,0h-54.95a0,0,0,0,1,0,0v-5.67A10.32,10.32,0,0,1,2111.63,924.06Z"/><rect class="cls-2" x="2123.95" y="837.49" width="11.54" height="89.34"/><path class="cls-7" d="M955,1022.92l47.51-195.38,335.59,85.31Zm62.78-169.42L984,992.33l272.23-78.21Z"/><polygon class="cls-2" points="1107.61 974.44 1092.12 970.51 1117.11 867.71 1132.6 871.65 1107.61 974.44"/><path class="cls-16" d="M860.64,989c-23,146.51-42,304.39-33.78,387.51,6.77,23.28,27.68,31,46.17,34l-12.7,14.17-35.78,2.09-47.74-19.23a200,200,0,0,0,5-26.46c2.54-19.55-6.32-64.22-6.32-64.22s-23.28-154.28-10-188.93c3.76-9.84,6.24-21.11,7.77-33.34v0c3.9-31.15,1.71-68.62-.86-105-2.78-39.56-6-77.88-2.36-105.53,16.69-126.24,16.89-235.41,16.89-235.41h93.68s26.54,77.11,14.17,143.22C884.2,848,871.93,917.12,860.64,989Z"/><path class="cls-17" d="M773.18,1094.57c3.9-31.15,1.71-68.62-.86-105l69.17-28.61,19.15,28C857.71,992.63,806.24,1054.71,773.18,1094.57Z"/><path class="cls-16" d="M1042.31,551.8s10.62-11.46,18.21-17.14,28.92-11.35,31.08-1.83c1,4.24-6.52,13.61-11.92,16.95s-6.23,7.58-12,13.55-19.76,6.28-19.76,6.28Z"/><path class="cls-18" d="M730.6,457c-4.47-8.81,97.37-40.5,99,46.37,0,0,190.77-4.8,99.68-113.52-31.54-37.64-28.29-68.77-27.35-97.74S882.28,179,811.67,187.45c0,0-18.49-7.7-41.57,4.54C717.62,219.84,600.05,489.06,730.6,457Z"/><path class="cls-19" d="M862.9,560.4a191.12,191.12,0,0,0,19,29.36c14.76,18.9,37.51,40.73,66.08,45,13.64,2.06,27-.94,39.25-6.51h0c34.7-15.75,60.79-52,60.79-52,6.11-17-3.9-28.62-3.9-28.62s-70.05,16.12-76.72,12.71-45.6-118.06-54.86-132.47S871.71,406,871.71,406Z"/><path class="cls-20" d="M881.89,589.76c14.76,18.9,37.51,40.73,66.08,45,13.64,2.06,27-.94,39.25-6.51-1.36.18-36,4.56-49.82-20.71-14.09-25.77-29.32-66.71-50.25-53.06C878.12,560.41,878.52,575,881.89,589.76Z"/><path class="cls-16" d="M665.36,1433.38H633.07c-9.38,0-20.07-7.35-22.68-24.67s-21.89-26.77-26.06-40.94c-2.87-9.74,3.9-16.69,10.31-22,2.94-2.46,5.8-4.57,7.62-6.46,6.57-6.77,12.76-36,12.76-36l34.05,18.31s-16,27.89-6.79,59.25c4.32,14.66,8.19,28.17,17.76,36.59a32,32,0,0,0,7.8,5.07C682.73,1429.32,665.36,1433.38,665.36,1433.38Z"/><path class="cls-19" d="M690.07,503.4a500,500,0,0,0,0,56.76c1.19,20.52,21.49,48,24.37,54.81,7.23,17.06,15.38,19.83,15.38,19.83l63.06,15.81,22.18,5.55L885,634.8S916.83,543.91,904,492.74,871.71,406,871.71,406s-80.39-21.38-142.66-2.78Z"/><path class="cls-16" d="M733.82,645.31S681,717.78,676.08,766.77s41.78,184.58,31.29,232.33c-7.78,35.45-49.29,63.56-60.76,152.92-4,31-18.34,93.13-31.59,151.2l29.26,29.37C714,1170.14,786.07,1067.87,790.33,1032c3-25.42,17.15-159.15,74.32-257.86,13.72-23.7-8.42-117.94-8.42-117.94Z"/><path class="cls-14" d="M898,812.13c-7.77,96.77-16.91,178.27-16.91,178.27s-44.13,30.4-106.56,34.27h0A202.51,202.51,0,0,1,679.91,1008s-12.85-233.68-4.67-270.9,44.4-88.45,44.4-88.45L882.57,655S905.75,715.36,898,812.13Z"/><path class="cls-21" d="M886.07,631.59s-13.91,11.24-41.52,11.81c-33,.68-114.72-8.6-114.72-8.6a70.29,70.29,0,0,0-3.49,21.33s99.83,25.75,157.67,3.76C884,659.89,891.47,645.54,886.07,631.59Z"/><path class="cls-4" d="M837.41,655.05c0-9.61,6.75-17.42,15.05-17.42s15,7.81,15,17.42-6.75,17.41-15,17.41S837.41,664.65,837.41,655.05Zm5,0c0,6.79,4.51,12.31,10.06,12.31s10.07-5.52,10.07-12.31-4.52-12.32-10.07-12.32S842.4,648.25,842.4,655.05Z"/><polygon class="cls-18" points="622.36 651.52 724.64 742.59 846.54 599.43 744.27 508.37 622.36 651.52"/><path class="cls-16" d="M752.89,651.86s37.48,4.48,37.36,13.57-9.34,27.78-14,28.61-30.49-25.26-30.49-25.26Z"/><path class="cls-19" d="M740.36,401.2s-50,3.58-69.2,51.25-55.57,127.71-55.57,141.18,20.33,55,129.49,78.83c0,0,11.29-12.14,10.6-21.74,0,0-68.14-59.85-68-66.84.35-13.24,11.18-30.7,71-91.89C775,475.35,740.36,401.2,740.36,401.2Z"/><path class="cls-7" d="M1035.09,688.35,1185,237.76c.69-2,1.61-4-.38-4.76l-1.82-.67c-2-.76-2.65.59-3.39,2.68L1019.61,679.12a8.66,8.66,0,0,0,4.49,10.79l3.7,1.68A5.35,5.35,0,0,0,1035.09,688.35Z"/><path class="cls-16" d="M1055.46,549.59a69.84,69.84,0,0,0,14-2.15c5.67-1.52,13-4.22,13-4.22,4.28,3.19-10.59,11.88-14.39,17.82-3.09,4.85-6.61,6.25-15.16,8.13Z"/><path class="cls-18" d="M815.82,1432.08c20.85-2.64,15.34,2.8,44.56,3s39.21-9.77,40.59-14c1.23-3.8-12.86-6.87-27.94-10.5l-.54.39A79,79,0,0,1,830,1419c-19.62-1.85-39.69-10.06-53.23-11.45-.83,4.54-1.66,9.18-1.28,13.88C776.59,1434.73,795,1434.73,815.82,1432.08Z"/><path class="cls-18" d="M665.36,1433.38H633.07c-9.38,0-20.07-7.35-22.68-24.67s-21.89-26.77-26.06-40.94c-2.87-9.74,3.9-16.69,10.31-22,3.54,5.44,11.21,19,18.72,44,8.78,29.22,29.81,30,46.68,27.63a32,32,0,0,0,7.8,5.07C682.73,1429.32,665.36,1433.38,665.36,1433.38Z"/><path class="cls-16" d="M748.23,398.73a30.36,30.36,0,0,0,22-19.58c4.21-12,7.55-29.84,7.47-52.13l3.17.64,53.23,10.78s-1.21,17.13-1.24,33.27v.4A31.22,31.22,0,0,0,855,402.38c6.73,2-32.06,54.2-36.5,53.17C809.24,453.42,745,399.46,748.23,398.73Z"/><path class="cls-22" d="M834.12,338.44s-1.21,17.13-1.24,33.27c-29.79-.86-45.54-28.65-52-44Z"/><path class="cls-16" d="M844.07,353.72s-70.48,1.19-70.53-43.7-9.17-75,35.82-77.63,53.76,14.46,57.34,29.44S862.4,352.25,844.07,353.72Z"/><path class="cls-18" d="M841.46,231.29S822.17,284,792.55,291.74s-42.46-.32-42.46-.32,22.72-18.46,27.43-50.67C777.52,240.75,826.91,206.22,841.46,231.29Z"/><path class="cls-18" d="M836.68,235.56S851,241,856.88,251.71a73.81,73.81,0,0,1,9.53,41.21s14.54-35.8-1.8-56.05C847.28,215.4,836.68,235.56,836.68,235.56Z"/><path class="cls-4" d="M830.3,327.07s1.22,5.29,14.09,4.47c0,0,10.81-.68,10.48-6.49C854.87,325.05,844.39,320.91,830.3,327.07Z"/><path class="cls-23" d="M818.47,455.55S770.8,403.48,769,382.2c0,0-12.15,3.46-26.45,17.68,0,0,11.46,29.35,25.13,39a85.83,85.83,0,0,0,17.8-4.73,155,155,0,0,1-8.92,13.48S798.17,460.18,818.47,455.55Z"/><path class="cls-23" d="M835.18,384.2s18.8,35.13-16.71,71.35c0,0,22.29-4.35,33.74-20.42,0,0-3.55-8.62-6.57-10.62,0,0,6.69-2.72,10.89,1.27,0,0,2.55-18.84,0-24.58S840.7,384,835.18,384.2Z"/><path class="cls-18" d="M814.92,455.55a3.55,3.55,0,1,1,3.55,3.64A3.59,3.59,0,0,1,814.92,455.55Z"/><path class="cls-18" d="M833.86,507a3.55,3.55,0,1,1,3.55,3.63A3.59,3.59,0,0,1,833.86,507Z"/><path class="cls-18" d="M837.41,567.39A3.55,3.55,0,1,1,841,571,3.59,3.59,0,0,1,837.41,567.39Z"/><path class="cls-21" d="M898,812.13c-7.77,96.77-16.91,178.27-16.91,178.27s-44.13,30.4-106.56,34.27c1.1-.42,36.61-14.42,62.89-45.88C864.11,946.84,898,812.13,898,812.13Z"/><g class="cls-24"><path class="cls-4" d="M1301.26,94.65H1307l15.64,36.6h-6.6l-3.6-8.78h-16.81l-3.65,8.78h-6.4Zm8.93,22.16-6.14-14.53L1298,116.81Z"/><path class="cls-4" d="M1360,94.91h15.94c4.07,0,7.26,1.14,9.29,3.22a8.28,8.28,0,0,1,2.39,6.12,8.66,8.66,0,0,1-5.08,8.1c4.17,1.45,7.06,3.89,7.06,8.93,0,6.49-5.23,10-13.15,10H1360Zm14.67,15.31c4,0,6.71-1.61,6.71-5,0-2.86-2.24-4.62-6.25-4.62h-9v9.65Zm1.83,15.37c4.27,0,6.86-1.72,6.86-5.09,0-3.06-2.39-4.88-7.32-4.88h-9.89v10Z"/><path class="cls-4" d="M1426.29,113.08c0-10.33,7.57-18.79,18.33-18.79a18.32,18.32,0,0,1,13.91,5.65l-4,4.73c-2.84-2.7-5.89-4.52-10-4.52-6.8,0-11.73,5.71-11.73,12.93s4.93,12.92,11.73,12.92c4.37,0,7.16-1.81,10.2-4.72l4,4.15c-3.7,3.95-7.76,6.44-14.41,6.44C1434,131.87,1426.29,123.61,1426.29,113.08Z"/><path class="cls-4" d="M1256.76,176.48H1270c11.17,0,18.88,7.83,18.88,18.16s-7.71,18.17-18.88,18.17h-13.25ZM1270,207c7.46,0,12.34-5.14,12.34-12.36s-4.88-12.35-12.34-12.35h-7V207Z"/><path class="cls-4" d="M1327.68,176.48H1354v5.71h-20.11v9.44h17.82v5.71h-17.82v9.76h20.36v5.71h-26.6Z"/><path class="cls-4" d="M1392.91,176.48h26.45v5.81h-20.2v9.91h17.92V198h-17.92v14.79h-6.25Z"/><path class="cls-4" d="M1455.86,194.64c0-10.17,7.62-18.79,18.33-18.79,6.2,0,10,1.77,13.66,4.93l-4,4.83a13.74,13.74,0,0,0-10-3.89c-6.55,0-11.53,5.86-11.53,12.92,0,7.48,4.83,13,12.09,13a14.32,14.32,0,0,0,8.58-2.75v-6.8H1474v-5.55h15.13v15.26a22.39,22.39,0,0,1-14.83,5.66C1463.18,213.44,1455.86,205.34,1455.86,194.64Z"/><path class="cls-4" d="M1238.92,258h6.24v15.11h17V258h6.24v36.34h-6.24V279.07h-17v15.31h-6.24Z"/><path class="cls-4" d="M1309.07,258h6.25v36.34h-6.25Z"/><path class="cls-4" d="M1352.53,289l4.11-4.31c2.08,2.7,4.17,4.26,7.16,4.26,3.35,0,5.64-2.28,5.64-7.11V258h6.39v24c0,4.3-1.22,7.52-3.3,9.65a11.7,11.7,0,0,1-8.63,3.22A13.3,13.3,0,0,1,1352.53,289Z"/><path class="cls-4" d="M1415.63,258h6.25v18.27l16.9-18.27h7.67l-14.78,15.63,15.44,20.71h-7.57L1427.41,278l-5.53,5.81v10.54h-6.25Z"/><path class="cls-4" d="M1483.66,258h6.24v30.53h18.69v5.81h-24.93Z"/><path class="cls-4" d="M1249.55,339.61h6.65L1267,356.79l10.82-17.18h6.65V376h-6.25V349.89L1267,367h-.2l-11.12-17v26h-6.14Z"/><path class="cls-4" d="M1324.84,339.61h5.78l19,25.12V339.61h6.14V376h-5.22L1331,350.1V376h-6.14Z"/><path class="cls-4" d="M1394.59,357.78A18.41,18.41,0,0,1,1413.22,339c10.92,0,18.53,8.46,18.53,18.79s-7.71,18.79-18.63,18.79S1394.59,368.11,1394.59,357.78Zm30.61,0c0-7.06-5-12.93-12.08-12.93s-12,5.77-12,12.93,5,12.92,12.08,12.92S1425.2,364.94,1425.2,357.78Z"/><path class="cls-4" d="M1470.54,339.61h14c8.27,0,13.5,4.83,13.5,12.25,0,8.15-6.39,12.41-14.21,12.41h-7.06V376h-6.24Zm13.5,18.9c4.72,0,7.67-2.7,7.67-6.6,0-4.25-3-6.49-7.67-6.49h-7.26v13.09Z"/><path class="cls-4" d="M1285.32,454.71a18.1,18.1,0,0,1-10.82,3.43c-10.91,0-18.53-8.46-18.53-18.79s7.72-18.8,18.63-18.8,18.53,8.47,18.53,18.8a18.71,18.71,0,0,1-3.6,11.16l4.06,3.53-4,4.57Zm-4.62-4.2-6.1-5.3,4-4.67,6.15,5.71a12.69,12.69,0,0,0,1.82-6.9c0-7.06-5-12.93-12.08-12.93s-12,5.76-12,12.93,5,12.92,12.08,12.92A11.14,11.14,0,0,0,1280.7,450.51Z"/><path class="cls-4" d="M1331.92,421.18h15.84c8.32,0,13.2,4.57,13.2,11.57,0,6-3.51,9.55-8.48,11l9.59,13.75h-7.36l-8.83-12.66h-7.72v12.66h-6.24Zm15.38,18c4.47,0,7.31-2.39,7.31-6.18s-2.74-6-7.36-6h-9.09v12.2Z"/><path class="cls-4" d="M1397.46,452.22l3.76-4.57c3.4,3,6.8,4.73,11.22,4.73,3.85,0,6.29-1.82,6.29-4.68,0-2.59-1.42-4-8-5.6-7.57-1.82-11.83-4.1-11.83-10.9,0-6.23,5.08-10.54,12.13-10.54a19.45,19.45,0,0,1,12.9,4.57l-3.35,4.82c-3.2-2.44-6.4-3.73-9.65-3.73-3.65,0-5.79,1.92-5.79,4.41,0,2.8,1.63,4,8.43,5.71,7.52,1.87,11.42,4.62,11.42,10.74,0,6.8-5.22,10.85-12.69,10.85A21.62,21.62,0,0,1,1397.46,452.22Z"/><path class="cls-4" d="M1472.29,427.1H1461v-5.92h28.83v5.92h-11.27v30.41h-6.29Z"/><path class="cls-4" d="M1278.64,523.66V502.74h6.24v20.67c0,6.74,3.4,10.38,9,10.38s8.93-3.43,8.93-10.13V502.74h6.25v20.61c0,10.85-6,16.3-15.28,16.3S1278.64,534.2,1278.64,523.66Z"/><path class="cls-4" d="M1345.8,502.74h6.91l10.71,27.93,10.66-27.93h6.75l-14.77,36.6h-5.48Z"/><path class="cls-4" d="M1415.4,502.74h6.76l8.47,27,8.74-27.05h5.28l8.73,27.05,8.48-27h6.55L1456,539.34h-5.38l-8.74-26.11-8.73,26.11h-5.38Z"/><path class="cls-4" d="M1301.54,602.17l-12.44-17.86h7.36l8.83,13,8.89-13h7.16L1309,602.07l12.89,18.58h-7.36l-9.34-13.76-9.39,13.76h-7.16Z"/><path class="cls-4" d="M1370,606.32l-14.11-22h7.36l10,16.09,10-16.09h7.16l-14.12,21.86v14.48H1370Z"/><path class="cls-4" d="M1425.81,615.93l21-26h-20.31v-5.66h28.43V589l-21,26h21v5.66h-29.09Z"/></g><polygon class="cls-12" points="1998.29 909.81 1991.98 910.84 1980.03 834.79 1986.35 833.75 1998.29 909.81"/><polygon class="cls-7" points="1981.09 820.88 1980.03 834.79 1986.35 833.75 1981.09 820.88"/><polygon class="cls-12" points="2040.95 917.1 2034.67 915.91 2048.43 840.18 2054.72 841.37 2040.95 917.1"/><polygon class="cls-6" points="2053.99 827.44 2048.43 840.18 2054.72 841.37 2053.99 827.44"/><polygon class="cls-12" points="2032.99 894.89 2026.7 893.69 2040.46 817.96 2046.75 819.16 2032.99 894.89"/><polygon class="cls-6" points="2046.03 805.23 2040.46 817.96 2046.75 819.16 2046.03 805.23"/><rect class="cls-21" x="2003.7" y="865.86" width="50.34" height="74.19"/><rect class="cls-14" x="1978.52" y="865.86" width="50.34" height="74.19"/><path class="cls-1" d="M174.23,846.61s24.82-29.61,1.53-48.42c0,0-17-10.53-30.89-9.68,0,0,19.66,33.71,13.3,37.06s-19.25-39.17-19.25-39.17-38.72-3.84-51.17,2.28c0,0,33.09,27.7,26.12,29.35s-42.72-25.54-42.72-25.54-36,6.27-34.11,28.75,14.34,29.42,19.79,28.82S94.21,837,94.91,841.57s-18.52,19.52-32,20.22c0,0,25.41,28.64,42.29,20.38s18.33-21.38,28.85-26.29,19.51-4.91,15.17.11-23.4,9.88-29.42,20.77S108.4,895,125.87,892.3s45.87-15.76,47.11-30.72Z"/><path class="cls-1" d="M54.74,821.85s97.88-3.86,119.49,24.76c0,0,4.78,14.64,19.49,28L196,881s-17-18.29-23-19.39C173,861.58,182.47,826.12,54.74,821.85Z"/><path class="cls-1" d="M193.72,874.58s21,15.88,22.46,44.27l-3.81.35s-6.71-29.35-18.83-40.83S193.72,874.58,193.72,874.58Z"/><path class="cls-25" d="M261,809.37S221.53,786.76,240,756.08c0,0,14.74-18.85,30.53-23.69,0,0-8.42,45.76,0,46.83s5.8-51.68,5.8-51.68,41.59-20.45,57.91-18.84c0,0-25.8,44.68-17.38,43.61S354.2,706,354.2,706s42.65-8.07,49.49,17.77-4.21,38.76-10.53,40.37-46.85,1.08-45.8,6.46,28.43,14,43.7,9.15c0,0-16.85,42.53-39,40.38s-29-16.15-42.65-17.23-23.69,2.69-16.84,6.46,30,1.24,41.06,10.85,20,15.53-.52,19.84-57.39,1.61-64.76-14.54Z"/><path class="cls-1" d="M384.21,731.85S273.65,768.46,261,809.37c0,0,.52,18.3-10.53,39.3v8.07s11.58-27.45,17.9-31.22C268.39,825.52,243.64,790,384.21,731.85Z"/><path class="cls-1" d="M250.49,848.67s-17.05,26.47-7.33,58.7l4.38-1.2s-4.25-35.5,4.67-53.35S250.49,848.67,250.49,848.67Z"/><path class="cls-25" d="M198.2,778.19s52.05-29.81,27.76-70.25c0,0-19.43-24.84-40.25-31.23,0,0,11.1,60.32,0,61.74s-7.64-68.12-7.64-68.12-54.82-27-76.34-24.84c0,0,34,58.9,22.9,57.48s-49.27-61-49.27-61S19.15,631.3,10.12,665.36,15.68,716.45,24,718.58,85.77,720,84.38,727.1s-37.47,18.45-57.6,12.06c0,0,22.21,56.06,51.36,53.22s38.17-21.29,56.21-22.71,31.23,3.55,22.21,8.52-39.56,1.63-54.13,14.3-26.38,20.47.69,26.15,75.65,2.13,85.36-19.16Z"/><path class="cls-1" d="M35.8,676s145.74,48.26,162.4,102.19c0,0-.7,24.13,13.88,51.8v10.65s-15.27-36.2-23.6-41.16C188.48,799.48,221.1,752.64,35.8,676Z"/><path class="cls-1" d="M212.08,830s22.47,34.9,9.66,77.38L216,905.78s5.61-46.79-6.15-70.32S212.08,830,212.08,830Z"/><path class="cls-21" d="M98,895.24C98,952.82,143.64,999.49,200,999.49a99.64,99.64,0,0,0,33.56-5.78c39.82-14.18,68.4-52.92,68.4-98.47Z"/><path class="cls-14" d="M165.11,895.24c0,39.06,9.15,78.84,40.24,96.7,5.17,3,22.48-.25,28.16,1.77,39.82-14.18,68.4-52.92,68.4-98.47Z"/><path class="cls-21" d="M96.59,1004.8H303.32a13,13,0,0,0-3.69-9.1,12.41,12.41,0,0,0-8.89-3.76H109.16A12.71,12.71,0,0,0,96.59,1004.8Z"/><path class="cls-14" d="M193.45,1004.8H303.32a13,13,0,0,0-3.69-9.1,12.41,12.41,0,0,0-8.89-3.76H206A12.72,12.72,0,0,0,193.45,1004.8Z"/><rect class="cls-12" x="95.68" y="895.24" width="209.59" height="3.2" transform="translate(400.94 1793.68) rotate(180)"/></g></g></svg>