<svg width="42" height="35" viewBox="0 0 42 35" fill="none" xmlns="http://www.w3.org/2000/svg">
<path d="M2.51343 24.3584C2.51343 23.8061 2.06571 23.3584 1.51343 23.3584C0.961143 23.3584 0.513428 23.8061 0.513428 24.3584H2.51343ZM1.51343 31.917H0.513428H1.51343ZM15.0928 34.9668C15.645 34.9668 16.0928 34.519 16.0928 33.9668C16.0928 33.4145 15.645 32.9668 15.0928 32.9668V34.9668ZM1.71077 33.2673L0.899268 33.8516H0.899268L1.71077 33.2673ZM2.50181 33.8271L2.84097 32.8864L2.50181 33.8271ZM0.513428 24.3584V31.917H2.51343V24.3584H0.513428ZM4.41049 34.9668H15.0928V32.9668H4.41049V34.9668ZM1.51343 31.917C0.513428 31.917 0.513428 31.9171 0.513428 31.9172C0.513428 31.9172 0.513428 31.9173 0.513428 31.9174C0.513428 31.9175 0.513428 31.9177 0.513428 31.9179C0.513428 31.9183 0.513429 31.9187 0.51343 31.9192C0.513431 31.9202 0.513434 31.9215 0.513438 31.923C0.513447 31.9261 0.513464 31.9302 0.513494 31.9352C0.513555 31.9453 0.513672 31.9592 0.513896 31.9766C0.514342 32.0113 0.515218 32.06 0.516941 32.1187C0.520354 32.2352 0.527237 32.3964 0.541386 32.5704C0.555215 32.7405 0.57757 32.9432 0.615915 33.1359C0.645247 33.2833 0.712796 33.5927 0.899268 33.8516L2.52226 32.6829C2.55383 32.7268 2.57183 32.7621 2.58014 32.7797C2.58892 32.7982 2.59257 32.8092 2.59259 32.8093C2.59279 32.8098 2.59107 32.8048 2.58803 32.7929C2.58505 32.7813 2.58144 32.7656 2.57745 32.7455C2.56029 32.6593 2.54564 32.5416 2.5348 32.4083C2.52429 32.279 2.51883 32.154 2.51608 32.0601C2.51472 32.0137 2.51405 31.9761 2.51373 31.9509C2.51357 31.9383 2.51349 31.9289 2.51346 31.9231C2.51344 31.9202 2.51343 31.9182 2.51343 31.9171C2.51343 31.9166 2.51343 31.9163 2.51343 31.9163C2.51343 31.9163 2.51343 31.9163 2.51343 31.9165C2.51343 31.9165 2.51343 31.9166 2.51343 31.9167C2.51343 31.9167 2.51343 31.9168 2.51343 31.9168C2.51343 31.9169 2.51343 31.917 1.51343 31.917ZM4.41049 32.9668C3.8918 32.9668 3.54527 32.9664 3.27885 32.951C3.01717 32.9358 2.90334 32.9089 2.84097 32.8864L2.16264 34.7678C2.48757 34.885 2.82108 34.9278 3.16342 34.9476C3.50102 34.9671 3.91518 34.9668 4.41049 34.9668V32.9668ZM0.899268 33.8516C1.21436 34.2892 1.67413 34.5917 2.16264 34.7678L2.84097 32.8864C2.64813 32.8169 2.55434 32.7275 2.52226 32.6829L0.899268 33.8516Z" fill="white"/>
<path d="M12.2912 2.94409C12.8434 2.94436 13.2914 2.49685 13.2917 1.94457C13.2921 1.39229 12.8446 0.944356 12.2923 0.944092L12.2912 2.94409ZM3.81848 1.94004L3.81907 0.940041L3.81848 1.94004ZM0.513549 13.9503C0.513223 14.5026 0.960675 14.9505 1.51296 14.9508C2.06524 14.951 2.51322 14.5035 2.51355 13.9512L0.513549 13.9503ZM2.30465 2.11388L1.81114 1.24419L2.30465 2.11388ZM1.67668 2.8133L2.58599 3.22932L1.67668 2.8133ZM12.2923 0.944092L3.81907 0.940041L3.81789 2.94004L12.2912 2.94409L12.2923 0.944092ZM0.519127 4.50111L0.513549 13.9503L2.51355 13.9512L2.51913 4.50207L0.519127 4.50111ZM3.81848 1.94004C3.81907 0.940041 3.81899 0.940041 3.81891 0.940041C3.81888 0.940041 3.81879 0.940041 3.81873 0.940041C3.8186 0.940041 3.81845 0.940041 3.81828 0.940041C3.81794 0.940041 3.81753 0.940041 3.81704 0.940042C3.81608 0.940042 3.81482 0.940044 3.81327 0.940047C3.81018 0.940052 3.80596 0.940064 3.80066 0.940087C3.79007 0.940132 3.77516 0.940223 3.75647 0.940404C3.71914 0.940765 3.66645 0.941487 3.60262 0.942933C3.47582 0.945805 3.30104 0.951623 3.11336 0.963577C2.92889 0.975325 2.71536 0.994002 2.51628 1.02517C2.36101 1.04948 2.0628 1.10137 1.81114 1.24419L2.79817 2.98356C2.7296 3.02248 2.68878 3.0297 2.71601 3.02243C2.73331 3.0178 2.76866 3.00998 2.82539 3.0011C2.93896 2.98332 3.08468 2.96944 3.24026 2.95953C3.39261 2.94983 3.53867 2.94489 3.64769 2.94242C3.70178 2.94119 3.74575 2.9406 3.77559 2.94031C3.79049 2.94017 3.80181 2.9401 3.80904 2.94007C3.81266 2.94005 3.81524 2.94005 3.81674 2.94004C3.81749 2.94004 3.81796 2.94004 3.81816 2.94004C3.81825 2.94004 3.81828 2.94004 3.81824 2.94004C3.81821 2.94004 3.81817 2.94004 3.81811 2.94004C3.81809 2.94004 3.81803 2.94004 3.81801 2.94004C3.81795 2.94004 3.81789 2.94004 3.81848 1.94004ZM2.51913 4.50207C2.5194 4.0388 2.5202 3.74519 2.53661 3.52308C2.55236 3.30975 2.57829 3.24614 2.58599 3.22932L0.767364 2.39729C0.618328 2.72299 0.565745 3.05504 0.542041 3.37599C0.518987 3.68815 0.519383 4.06742 0.519127 4.50111L2.51913 4.50207ZM1.81114 1.24419C1.34574 1.50833 0.986658 1.91806 0.767364 2.39729L2.58599 3.22932C2.64243 3.10598 2.72293 3.02626 2.79817 2.98356L1.81114 1.24419Z" fill="white"/>
<path d="M29.6189 33C29.0666 33.0017 28.6207 33.4508 28.6228 34.0031C28.625 34.5553 29.0744 35.0017 29.6267 35L29.6189 33ZM38.17 33.9739L38.1739 34.9739L38.17 33.9739ZM41.441 21.9532C41.4389 21.4009 40.9894 20.9546 40.4371 20.9563C39.8848 20.958 39.4389 21.407 39.441 21.9593L41.441 21.9532ZM39.6963 33.7947L40.1904 34.6645L40.1904 34.6645L39.6963 33.7947ZM40.3266 33.0931L39.4168 32.6773L40.3266 33.0931ZM29.6267 35L38.1739 34.9739L38.1661 32.9739L29.6189 33L29.6267 35ZM41.4779 31.4014L41.441 21.9532L39.441 21.9593L39.4779 31.4075L41.4779 31.4014ZM38.17 33.9739C38.1739 34.9739 38.174 34.9739 38.1741 34.9739C38.1741 34.9739 38.1742 34.9739 38.1743 34.9739C38.1744 34.9739 38.1745 34.9739 38.1747 34.9739C38.175 34.9739 38.1755 34.9739 38.1759 34.9739C38.1769 34.9739 38.1782 34.9739 38.1797 34.9739C38.1828 34.9738 38.1871 34.9738 38.1924 34.9738C38.2031 34.9737 38.2181 34.9735 38.2369 34.9733C38.2745 34.9728 38.3275 34.9719 38.3918 34.9702C38.5196 34.9669 38.6956 34.9605 38.8846 34.9479C39.0703 34.9355 39.2851 34.9161 39.485 34.8843C39.6413 34.8595 39.9395 34.8069 40.1904 34.6645L39.2021 32.9249C39.2698 32.8865 39.3097 32.8795 39.2816 32.887C39.2635 32.8919 39.2272 32.9 39.1697 32.9091C39.0545 32.9274 38.907 32.9418 38.7498 32.9523C38.5959 32.9626 38.4483 32.968 38.3382 32.9709C38.2835 32.9723 38.2391 32.9731 38.209 32.9735C38.1939 32.9737 38.1824 32.9738 38.1751 32.9738C38.1715 32.9739 38.1688 32.9739 38.1673 32.9739C38.1665 32.9739 38.1661 32.9739 38.1659 32.9739C38.1658 32.9739 38.1657 32.9739 38.1658 32.9739C38.1658 32.9739 38.1658 32.9739 38.1659 32.9739C38.1659 32.9739 38.166 32.9739 38.166 32.9739C38.166 32.9739 38.1661 32.9739 38.17 33.9739ZM39.4779 31.4075C39.4797 31.8708 39.4802 32.164 39.4647 32.3858C39.4498 32.5985 39.4241 32.6613 39.4168 32.6773L41.2364 33.5089C41.3856 33.1819 41.4373 32.8487 41.4598 32.5271C41.4817 32.2145 41.4796 31.8349 41.4779 31.4014L39.4779 31.4075ZM40.1904 34.6645C40.6566 34.3999 41.0169 33.9899 41.2364 33.5089L39.4168 32.6773C39.3608 32.7998 39.2799 32.8807 39.2021 32.9249L40.1904 34.6645Z" fill="white"/>
<path d="M39.541 13.9554C39.5457 14.5077 39.9971 14.9524 40.5494 14.9488C41.1017 14.9452 41.5456 14.4946 41.541 13.9423L39.541 13.9554ZM40.4619 4.50089L41.4619 4.49434L40.4619 4.50089ZM29.5668 1.00994C29.0146 1.01356 28.5706 1.46419 28.5752 2.01646C28.5799 2.56872 29.0313 3.01349 29.5836 3.00987L29.5668 1.00994ZM40.2899 2.81408L41.1945 2.38953L40.2899 2.81408ZM39.6511 2.11847L39.1676 2.99296L39.1676 2.99296L39.6511 2.11847ZM41.541 13.9423L41.4619 4.49434L39.4619 4.50744L39.541 13.9554L41.541 13.9423ZM38.114 0.953948L29.5668 1.00994L29.5836 3.00987L38.1308 2.95388L38.114 0.953948ZM40.4619 4.50089C41.4619 4.49434 41.4619 4.49427 41.4619 4.49421C41.4619 4.49418 41.4619 4.4941 41.4619 4.49404C41.4619 4.49393 41.4619 4.49379 41.4619 4.49363C41.4619 4.49331 41.4619 4.49291 41.4619 4.49243C41.4618 4.49147 41.4618 4.49018 41.4618 4.48858C41.4618 4.48538 41.4617 4.48092 41.4617 4.47527C41.4615 4.46396 41.4613 4.44789 41.461 4.42763C41.4603 4.38714 41.4592 4.32972 41.4573 4.26004C41.4535 4.12137 41.4467 3.93088 41.4344 3.72702C41.4222 3.52584 41.4039 3.29799 41.3755 3.08885C41.3525 2.91969 41.3077 2.63006 41.1945 2.38953L39.3852 3.23862C39.3524 3.16885 39.3693 3.17545 39.3937 3.35458C39.4126 3.49373 39.4272 3.66625 39.438 3.84407C39.4486 4.01923 39.4546 4.18641 39.458 4.31066C39.4597 4.37244 39.4606 4.42278 39.4612 4.4572C39.4615 4.47439 39.4617 4.48755 39.4618 4.49613C39.4618 4.50041 39.4619 4.50354 39.4619 4.50545C39.4619 4.50641 39.4619 4.50706 39.4619 4.50739C39.4619 4.50756 39.4619 4.50765 39.4619 4.50766C39.4619 4.50766 39.4619 4.50764 39.4619 4.50761C39.4619 4.50759 39.4619 4.50755 39.4619 4.50754C39.4619 4.50749 39.4619 4.50744 40.4619 4.50089ZM38.1308 2.95388C38.5546 2.9511 38.8062 2.95041 38.9926 2.96601C39.1641 2.98036 39.1857 3.00294 39.1676 2.99296L40.1345 1.24398C39.8051 1.06149 39.468 0.999135 39.1558 0.973007C38.8586 0.948128 38.5015 0.95141 38.114 0.953948L38.1308 2.95388ZM41.1945 2.38953C40.9693 1.91106 40.6042 1.5042 40.1345 1.24398L39.1676 2.99296C39.2457 3.03622 39.3276 3.11628 39.3852 3.23862L41.1945 2.38953Z" fill="white"/>
<path d="M28.4878 27.4699C28.4878 28.0222 28.9355 28.4699 29.4878 28.4699C30.04 28.4699 30.4878 28.0222 30.4878 27.4699H28.4878ZM9.56641 27.4699C9.56641 28.0222 10.0141 28.4699 10.5664 28.4699C11.1187 28.4699 11.5664 28.0222 11.5664 27.4699H9.56641ZM30.4878 27.4699C30.4878 25.518 29.0353 23.9774 27.1913 22.9833C25.3069 21.9674 22.7721 21.3698 20.0271 21.3698V23.3698C22.507 23.3698 24.7026 23.9138 26.2423 24.7438C27.8224 25.5956 28.4878 26.6051 28.4878 27.4699H30.4878ZM20.0271 21.3698C17.282 21.3698 14.7473 21.9674 12.8628 22.9833C11.0188 23.9774 9.56641 25.518 9.56641 27.4699H11.5664C11.5664 26.6051 12.2318 25.5956 13.8119 24.7438C15.3515 23.9138 17.5471 23.3698 20.0271 23.3698V21.3698ZM20.0271 17.5447C16.8872 17.5447 14.72 15.521 14.72 13.4445H12.72C12.72 17.0015 16.2003 19.5447 20.0271 19.5447V17.5447ZM14.72 13.4445C14.72 11.368 16.8872 9.34436 20.0271 9.34436V7.34436C16.2003 7.34436 12.72 9.88755 12.72 13.4445H14.72ZM20.0271 9.34436C23.167 9.34436 25.3342 11.368 25.3342 13.4445H27.3342C27.3342 9.88755 23.8538 7.34436 20.0271 7.34436V9.34436ZM25.3342 13.4445C25.3342 15.521 23.167 17.5447 20.0271 17.5447V19.5447C23.8538 19.5447 27.3342 17.0015 27.3342 13.4445H25.3342Z" fill="white"/>
</svg>
